<?xml version="1.0" encoding="utf-8"?>
<!-- Generator: Adobe Illustrator 26.2.1, SVG Export Plug-In . SVG Version: 6.00 Build 0)  -->
<svg version="1.1" id="레이어_1" xmlns="http://www.w3.org/2000/svg" xmlns:xlink="http://www.w3.org/1999/xlink" x="0px"
	 y="0px" viewBox="0 0 28 28" style="enable-background:new 0 0 28 28;" xml:space="preserve">
<style type="text/css">
	.st0{
		fill:none;
		stroke:#F7C744;
		stroke-width:1.5;
		stroke-linecap:round;
		stroke-linejoin:round;
		animation-name: rotate;
  		animation-duration: 12s;
		animation-delay: 0;
		animation-timing-function: linear;
		animation-iteration-count: infinite;
		transform-origin: center;
	}
	@keyframes rotate {
		from {
			-webkit-transform: rotate(0deg);
			-o-transform: rotate(0deg);
			transform: rotate(0deg);
		}
		to {
			-webkit-transform: rotate(360deg);
			-o-transform: rotate(360deg);
			transform: rotate(360deg);
		}
	}
</style>
<path class="st0" d="M5,14H2.5 M25.5,14H23 M5,14H2.5 M21.8,9.5l2.1-1.2 M4.1,19.7l2.1-1.2 M18.5,6.2l1.2-2.1 M8.3,23.9l1.2-2.1
	 M14,5V2.5 M14,25.5V23 M9.5,6.2L8.3,4.1 M19.7,23.9l-1.2-2.1 M6.2,9.5L4.1,8.3 M23.9,19.7l-2.1-1.2 M20.5,14c0,3.6-2.9,6.5-6.5,6.5
	S7.5,17.6,7.5,14s2.9-6.5,6.5-6.5c0,0,0,0,0,0C17.6,7.5,20.5,10.4,20.5,14z"/>
</svg>
