<?xml version="1.0" encoding="utf-8"?>
<!-- Generator: Adobe Illustrator 26.2.1, SVG Export Plug-In . SVG Version: 6.00 Build 0)  -->
<svg version="1.1" id="레이어_1" xmlns="http://www.w3.org/2000/svg" xmlns:xlink="http://www.w3.org/1999/xlink" x="0px"
	 y="0px" viewBox="0 0 28 28" style="enable-background:new 0 0 28 28;" xml:space="preserve">
<style type="text/css">
	.st0{fill:none;stroke:#222222;stroke-width:1.5;stroke-linecap:round;stroke-linejoin:round;}
	.st1{fill:#222222;}
</style>
<g>
	<path class="st0" d="M5.5,10.8v6.8"/>
	<path class="st0" d="M8.5,5.3v11.1"/>
	<path class="st0" d="M11.5,8.7v14"/>
	<path class="st0" d="M8.5,19.1V21"/>
</g>
<g>
	<path class="st1" d="M19,14.9c-0.2-0.1-0.3-0.4-0.2-0.7l2.1-3.7c0.1-0.2,0.4-0.3,0.7-0.1c0.2,0.1,0.3,0.4,0.2,0.6l-2.1,3.7
		C19.6,14.9,19.3,15,19,14.9z"/>
	<path class="st1" d="M20.3,12.7c-0.1-0.1-0.2-0.2-0.2-0.3l-0.4-1.7c-0.1-0.3,0.1-0.5,0.4-0.6c0.2-0.1,0.5,0.1,0.6,0.3l0.3,1.2
		l1.2-0.3c0.3-0.1,0.5,0.1,0.6,0.3c0.1,0.3-0.1,0.5-0.3,0.6c0,0,0,0,0,0l-1.7,0.5C20.5,12.8,20.4,12.8,20.3,12.7z"/>
	<path class="st1" d="M21.2,11.2c-0.1-0.1-0.2-0.2-0.2-0.3L20.7,10c-0.1-0.3,0.1-0.5,0.4-0.6c0.2-0.1,0.5,0.1,0.6,0.3l0.1,0.5
		l0.5-0.1c0.3-0.1,0.5,0.1,0.6,0.3s-0.1,0.5-0.3,0.6l0,0l-0.9,0.3C21.4,11.3,21.3,11.2,21.2,11.2z"/>
	<path class="st1" d="M18.9,14.9c-0.1,0-0.1-0.1-0.2-0.2L16.6,11c-0.1-0.2-0.1-0.5,0.2-0.7c0.2-0.1,0.5-0.1,0.7,0.2c0,0,0,0,0,0
		l2.1,3.7c0.1,0.2,0.1,0.5-0.2,0.7C19.3,15,19.1,15,18.9,14.9L18.9,14.9z"/>
	<path class="st1" d="M16,12.3c-0.2-0.1-0.3-0.4-0.2-0.7c0.1-0.2,0.3-0.3,0.5-0.2l1.2,0.3l0.3-1.2c0.1-0.3,0.4-0.4,0.6-0.3
		c0.2,0.1,0.4,0.3,0.3,0.6l-0.4,1.7c-0.1,0.3-0.3,0.4-0.6,0.3l-1.7-0.4C16.1,12.3,16,12.3,16,12.3z"/>
	<path class="st1" d="M15.8,10.9c-0.2-0.1-0.3-0.4-0.2-0.7c0.1-0.2,0.3-0.3,0.5-0.2l0.5,0.1l0.1-0.5c0.1-0.3,0.4-0.4,0.6-0.3
		c0.2,0.1,0.4,0.3,0.3,0.6l-0.3,0.9c-0.1,0.3-0.3,0.4-0.6,0.3c0,0,0,0,0,0L16,11C15.9,11,15.9,11,15.8,10.9z"/>
	<path class="st1" d="M14.6,15c-0.2-0.1-0.3-0.4-0.2-0.7c0.1-0.2,0.2-0.2,0.4-0.2l4.3,0c0.3,0,0.5,0.2,0.5,0.5
		c0,0.3-0.2,0.5-0.5,0.5c0,0,0,0,0,0l-4.3,0C14.7,15.1,14.7,15,14.6,15z"/>
	<path class="st1" d="M15.1,16.2c-0.2-0.1-0.3-0.4-0.2-0.7c0,0,0-0.1,0.1-0.1l0.9-0.9L15,13.7c-0.2-0.2-0.2-0.5,0-0.7
		c0.2-0.2,0.5-0.2,0.7,0c0,0,0,0,0,0l1.2,1.2c0.2,0.2,0.2,0.5,0,0.7l-1.2,1.2C15.6,16.3,15.3,16.3,15.1,16.2z"/>
	<path class="st1" d="M13.9,15.7c-0.2-0.1-0.3-0.4-0.2-0.7c0,0,0-0.1,0.1-0.1l0.3-0.3l-0.3-0.3c-0.2-0.2-0.2-0.5,0-0.7
		c0.2-0.2,0.5-0.2,0.7,0c0,0,0,0,0,0l0.7,0.7c0.2,0.2,0.2,0.5,0,0.7c0,0,0,0,0,0l-0.7,0.7C14.4,15.8,14.1,15.8,13.9,15.7z"/>
	<path class="st1" d="M16.8,18.8c-0.2-0.1-0.3-0.4-0.2-0.7l2.2-3.7c0.1-0.2,0.4-0.3,0.7-0.1c0.2,0.1,0.3,0.4,0.2,0.6l-2.1,3.7
		C17.3,18.9,17,18.9,16.8,18.8z"/>
	<path class="st1" d="M16,17.7c-0.2-0.1-0.3-0.4-0.2-0.7c0.1-0.1,0.2-0.2,0.3-0.2l1.7-0.5c0.3-0.1,0.5,0.1,0.6,0.3c0,0,0,0,0,0
		l0.4,1.7c0.1,0.3-0.1,0.5-0.3,0.6c-0.3,0.1-0.5-0.1-0.6-0.3c0,0,0,0,0,0l-0.3-1.2l-1.2,0.3C16.3,17.8,16.1,17.8,16,17.7z"/>
	<path class="st1" d="M15.9,19.1c-0.2-0.1-0.3-0.4-0.2-0.7c0.1-0.1,0.2-0.2,0.3-0.2l0.9-0.3c0.3-0.1,0.5,0.1,0.6,0.3l0.3,0.9
		c0.1,0.3-0.1,0.5-0.3,0.6c-0.3,0.1-0.5-0.1-0.6-0.3L16.7,19l-0.5,0.1C16.1,19.1,16,19.1,15.9,19.1z"/>
	<path class="st1" d="M21.2,18.8c-0.1,0-0.1-0.1-0.2-0.2l-2.1-3.7c-0.1-0.2-0.1-0.5,0.2-0.7s0.5-0.1,0.7,0.2c0,0,0,0,0,0l2.1,3.7
		c0.1,0.2,0.1,0.5-0.2,0.7C21.5,18.9,21.4,18.9,21.2,18.8L21.2,18.8z"/>
	<path class="st1" d="M19.9,18.9c-0.2-0.1-0.3-0.3-0.2-0.6l0.4-1.7c0.1-0.3,0.3-0.4,0.6-0.3c0,0,0,0,0,0l1.7,0.4
		c0.3,0.1,0.4,0.3,0.4,0.6c-0.1,0.3-0.3,0.4-0.6,0.4c0,0,0,0,0,0l-1.2-0.3l-0.3,1.2c-0.1,0.3-0.3,0.4-0.6,0.3
		C19.9,19,19.9,19,19.9,18.9L19.9,18.9z"/>
	<path class="st1" d="M20.9,19.7c-0.2-0.1-0.3-0.3-0.2-0.6l0.3-0.9c0.1-0.3,0.3-0.4,0.6-0.3c0,0,0,0,0,0l0.9,0.3
		c0.3,0.1,0.4,0.3,0.4,0.6c-0.1,0.3-0.3,0.4-0.6,0.4c0,0,0,0,0,0L21.8,19l-0.1,0.5c-0.1,0.3-0.3,0.4-0.6,0.3
		C21,19.8,21,19.7,20.9,19.7L20.9,19.7z"/>
	<path class="st1" d="M19.1,15c-0.2-0.1-0.3-0.4-0.2-0.7c0.1-0.2,0.2-0.2,0.4-0.2l4.3,0c0.3,0,0.5,0.2,0.5,0.5
		c0,0.3-0.2,0.5-0.5,0.5c0,0,0,0,0,0l-4.3,0C19.3,15,19.2,15,19.1,15z"/>
	<path class="st1" d="M22.9,16.2c0,0-0.1,0-0.1-0.1l-1.2-1.2c-0.2-0.2-0.2-0.5,0-0.7l1.2-1.2c0.2-0.2,0.5-0.2,0.7,0
		c0.2,0.2,0.2,0.5,0,0.7l-0.9,0.9l0.9,0.9c0.2,0.2,0.2,0.5,0,0.7C23.3,16.3,23.1,16.3,22.9,16.2L22.9,16.2z"/>
	<path class="st1" d="M24.1,15.7c0,0-0.1,0-0.1-0.1l-0.7-0.7c-0.2-0.2-0.2-0.5,0-0.7c0,0,0,0,0,0l0.7-0.7c0.2-0.2,0.5-0.2,0.7,0
		c0.2,0.2,0.2,0.5,0,0.7l-0.3,0.3l0.3,0.3c0.2,0.2,0.2,0.5,0,0.7C24.5,15.7,24.3,15.8,24.1,15.7L24.1,15.7z"/>
</g>
</svg>
