<?xml version="1.0" encoding="utf-8"?>
<!-- Generator: Adobe Illustrator 26.2.1, SVG Export Plug-In . SVG Version: 6.00 Build 0)  -->
<svg version="1.1" id="레이어_1" xmlns="http://www.w3.org/2000/svg" xmlns:xlink="http://www.w3.org/1999/xlink" x="0px"
	 y="0px" viewBox="0 0 28 28" style="enable-background:new 0 0 28 28;" xml:space="preserve">
<style type="text/css">
	.st0{
		fill:none;
		stroke:#222222;
		stroke-width:1.5;
		stroke-linecap:round;
		stroke-linejoin:round;
		animation-name: translateX1;
		animation-duration: 2s;
		animation-delay: 0;
		animation-timing-function: linear;
		animation-iteration-count: infinite;
		transform-origin: 100% 0;
	}
	@keyframes translateX1 {
		0% {
			-webkit-transform: translateX(-15%);
			-o-transform: translateX(-15%);
			transform: translateX(-15%);
		}
		50% {
			-webkit-transform: translateX(0);
			-o-transform: translateX(0);
			transform: translateX(0);
		}
		100% {
			-webkit-transform: translateX(-15%);
			-o-transform: translateX(-15%);
			transform: translateX(-15%);
		}
	}
	.st1{
		fill:none;
		stroke:#222222;
		stroke-width:1.5;
		stroke-linecap:round;
		stroke-linejoin:round;
		animation-name: translateX2;
		animation-duration: 2s;
		animation-delay: 0;
		animation-timing-function: linear;
		animation-iteration-count: infinite;
		transform-origin: 100% 0;
	}
	@keyframes translateX2 {
		0% {
			-webkit-transform: translateX(-10%);
			-o-transform: translateX(-10%);
			transform: translateX(-10%);
		}
		50% {
			-webkit-transform: translateX(0);
			-o-transform: translateX(0);
			transform: translateX(0);
		}
		100% {
			-webkit-transform: translateX(-10%);
			-o-transform: translateX(-10%);
			transform: translateX(-10%);
		}
	}
	.st2{
		fill:none;
		stroke:#222222;
		stroke-width:1.5;
		stroke-linecap:round;
		stroke-linejoin:round;
		animation-name: translateX3;
		animation-duration: 2s;
		animation-delay: 0;
		animation-timing-function: linear;
		animation-iteration-count: infinite;
		transform-origin: 100% 0;
	}
	@keyframes translateX3 {
		0% {
			-webkit-transform: translateX(-20%);
			-o-transform: translateX(-20%);
			transform: translateX(-20%);
		}
		50% {
			-webkit-transform: translateX(0);
			-o-transform: translateX(0);
			transform: translateX(0);
		}
		100% {
			-webkit-transform: translateX(-20%);
			-o-transform: translateX(-20%);
			transform: translateX(-20%);
		}
	}
	.st3{
		fill:#222222;
		animation-name: rotateZ1;
		animation-duration: 4s;
		animation-delay: 0;
		animation-timing-function: linear; 
		animation-iteration-count: infinite;
		transform-origin: center;
	}
	@keyframes rotateZ1 {
		0% {
			-webkit-transform: rotateZ(0);
			-o-transform: rotateZ(0);
			transform: rotateZ(0);
		}
		100% {
			-webkit-transform: rotateZ(360deg);
			-o-transform: rotateZ(360deg);
			transform: rotateZ(360deg);
		}
	}
	.st4{
		fill:#222222;
		animation-name: rotateZ2;
		animation-duration: 8s;
		animation-delay: 0;
		animation-timing-function: linear;
		animation-iteration-count: infinite;
		transform-origin: center;
	}
	@keyframes rotateZ2 {
		0% {
			-webkit-transform: rotateZ(0);
			-o-transform: rotateZ(0);
			transform: rotateZ(0);
		}
		100% {
			-webkit-transform: rotateZ(360deg);
			-o-transform: rotateZ(360deg);
			transform: rotateZ(360deg);
		}
	}
</style>
<path class="st0" d="M16.4,10.5c0.1-1.2,1.2-2.1,2.4-2c1.2,0.1,2.1,1.2,2,2.4c-0.1,1.1-1,2-2.2,2H5.2"/>

<path class="st1" d="M9.6,8c0.1-1.2,1.2-2.1,2.4-2c1.2,0.1,2.1,1.2,2,2.4c-0.1,1.1-1,2-2.2,2H4"/>
<path class="st2" d="M13.6,17.7c0.1,1.2,1.2,2.1,2.4,2s2.1-1.2,2-2.4c-0.1-1.1-1.1-2-2.2-2H8"/>

<path class="st3" d="M8.4,18.7c0-0.3,0.3-0.6,0.6-0.6c0.3,0,0.6,0.3,0.6,0.6v0.7l0.6-0.4c0.3-0.2,0.6-0.1,0.8,0.2
	c0.2,0.3,0.1,0.6-0.2,0.8l-0.6,0.4l0.6,0.4c0.3,0.2,0.4,0.5,0.2,0.8c-0.2,0.3-0.5,0.4-0.8,0.2l-0.6-0.4v0.7c0,0.3-0.3,0.6-0.6,0.6
	c-0.3,0-0.6-0.3-0.6-0.6v-0.7l-0.6,0.4C7.5,22,7.1,21.9,7,21.6c-0.2-0.3-0.1-0.6,0.2-0.8l0,0l0.6-0.4l-0.6-0.4
	c-0.3-0.2-0.4-0.5-0.2-0.8C7.1,19,7.5,18.9,7.8,19l0,0l0.6,0.4V18.7z"/>
<path class="st4" d="M22.3,15.6c0-0.3,0.3-0.6,0.6-0.6c0.3,0,0.6,0.3,0.6,0.6v0.7l0.6-0.4c0.3-0.2,0.6-0.1,0.8,0.2
	c0.2,0.3,0.1,0.6-0.2,0.8l-0.6,0.4l0.6,0.4c0.3,0.2,0.4,0.5,0.2,0.8c-0.2,0.3-0.5,0.4-0.8,0.2l-0.6-0.4v0.7c0,0.3-0.3,0.6-0.6,0.6
	c-0.3,0-0.6-0.3-0.6-0.6v-0.7l-0.6,0.4c-0.3,0.2-0.6,0.1-0.8-0.2c-0.2-0.3-0.1-0.6,0.2-0.8l0,0l0.6-0.4L21.1,17
	c-0.3-0.2-0.4-0.5-0.2-0.8c0.2-0.3,0.5-0.4,0.8-0.2l0,0l0.6,0.4V15.6z"/>
</svg>
