<?xml version="1.0" encoding="utf-8"?>
<!-- Generator: Adobe Illustrator 26.2.1, SVG Export Plug-In . SVG Version: 6.00 Build 0)  -->
<svg version="1.1" id="레이어_1" xmlns="http://www.w3.org/2000/svg" xmlns:xlink="http://www.w3.org/1999/xlink" x="0px"
	 y="0px" viewBox="0 0 28 28" style="enable-background:new 0 0 28 28;" xml:space="preserve">
<style type="text/css">
	.st0{
		fill:none;
		stroke:#F7C744;
		stroke-width:1.5;
		stroke-linecap:round;
		stroke-linejoin:round;
		animation-name: rotate;
  		animation-duration: 3s;
		animation-delay: 0;
		animation-timing-function: linear;
		animation-iteration-count: infinite;
		transform-origin: center;
	}
	@keyframes rotate {
		0% {
			-webkit-transform: rotate(0);
			-o-transform: rotate(0);
			transform: rotate(0);
		}
		50% {
			-webkit-transform: rotate(15deg);
			-o-transform: rotate(15deg);
			transform: rotate(15deg);
		}
		100% {
			-webkit-transform: rotate(0);
			-o-transform: rotate(0);
			transform: rotate(0);
		}
	}
	.st1{
		fill:#FFFFFF;
		stroke:#222222;
		stroke-width:1.5;
		stroke-linecap:round;
		stroke-linejoin:round;
	}
</style>
<path class="st0" d="M20.4,10.2c-1.3-2.2-0.2-5.1-0.2-5.1l-0.4,0.1c-3.2,0.3-5.5,3.2-5.2,6.4s3.2,5.5,6.4,5.2c2.4-0.3,4.3-1.9,5-4.2
	C21.7,12.7,20.4,10.2,20.4,10.2L20.4,10.2z"/>
<path class="st1" d="M6.6,23.7c-2.6,0.1-4.7-1.9-4.8-4.5c-0.1-2.3,1.5-4.3,3.8-4.7c1-3.5,4.7-5.5,8.2-4.5c2.6,0.7,4.4,3,4.7,5.6
	c2.2,0.2,3.8,2.3,3.6,4.5c-0.2,2.1-2,3.7-4.2,3.6L6.6,23.7z"/>
</svg>
