<svg xmlns="http://www.w3.org/2000/svg" width="28" height="28" viewBox="0 0 28 28">
    <path data-name="패스 7494" d="M1400.229 1069.645v6.753" transform="translate(-1394.729 -1058.83)" style="fill:none;stroke:#222;stroke-linecap:round;stroke-linejoin:round;stroke-width:1.5px"/>
    <path data-name="패스 7495" d="M1403.223 1060.6v11.055" transform="translate(-1394.729 -1055.309)" style="fill:none;stroke:#222;stroke-linecap:round;stroke-linejoin:round;stroke-width:1.5px"/>
    <path data-name="패스 7496" d="M1403.223 1060.6v14" transform="translate(-1391.735 -1051.882)" style="fill:none;stroke:#222;stroke-linecap:round;stroke-linejoin:round;stroke-width:1.5px"/>
    <path data-name="패스 7497" d="M1403.223 1060.6v1.837" transform="translate(-1394.729 -1041.451)" style="fill:none;stroke:#222;stroke-linecap:round;stroke-linejoin:round;stroke-width:1.5px"/>
    <g>
        <path data-name="패스 7448" d="M25.62 14.162a.49.49 0 0 1-.49-.49v-4.3a.49.49 0 0 1 .979 0v4.3a.49.49 0 0 1-.489.49z" transform="rotate(30 20.97 2.235)" style="fill:#222"/>
        <path data-name="패스 7449" d="M22.69 12.912a.49.49 0 0 1-.346-.143l-1.225-1.225a.49.49 0 0 1 .692-.692l.878.878.873-.877a.49.49 0 1 1 .694.691l-1.219 1.225a.49.49 0 0 1-.347.143z" transform="rotate(30 21.903 8.343)" style="fill:#222"/>
        <path data-name="패스 7450" d="M23.989 8.275a.49.49 0 0 1-.346-.143l-.682-.682a.49.49 0 0 1 .692-.692l.334.334.33-.333a.49.49 0 0 1 .7.689l-.676.682a.49.49 0 0 1-.352.145z" transform="rotate(30 17.164 4.477)" style="fill:#222"/>
        <path data-name="패스 7451" d="M16.421 19.526a.487.487 0 0 1-.245-.066l-3.718-2.149a.49.49 0 1 1 .49-.848l3.718 2.149a.49.49 0 0 1-.245.913z" transform="rotate(30 26.3 21.877)" style="fill:#222"/>
        <path data-name="패스 7452" d="M12.212 16.814a.49.49 0 0 1-.126-.962l1.193-.32-.32-1.2a.49.49 0 0 1 .946-.253l.447 1.672a.49.49 0 0 1-.346.6l-1.666.447a.49.49 0 0 1-.128.016z" transform="rotate(30 22.599 21.577)" style="fill:#222"/>
        <path data-name="패스 7453" d="M9.572 15.422a.49.49 0 0 1-.126-.963l.456-.121-.122-.456a.49.49 0 0 1 .946-.252l.247.929a.49.49 0 0 1-.347.6l-.929.247a.49.49 0 0 1-.125.016z" transform="rotate(30 21.076 24.895)" style="fill:#222"/>
        <path data-name="패스 7454" d="M12.745 27.181a.49.49 0 0 1-.245-.914l3.724-2.149a.49.49 0 1 1 .489.848l-3.724 2.149a.487.487 0 0 1-.244.066z" transform="rotate(30 36.388 24.522)" style="fill:#222"/>
        <path data-name="패스 7455" d="M13.473 29.934a.49.49 0 0 1-.473-.617l.324-1.2-1.2-.32a.49.49 0 1 1 .253-.946l1.672.447a.49.49 0 0 1 .346.6l-.453 1.672a.49.49 0 0 1-.469.364z" transform="rotate(30 39.877 26.151)" style="fill:#222"/>
        <path data-name="패스 7456" d="M10.3 32.636a.49.49 0 0 1-.473-.616l.121-.456-.461-.122a.49.49 0 1 1 .25-.947l.936.247a.49.49 0 0 1 .348.6l-.247.929a.49.49 0 0 1-.474.365z" transform="rotate(30 43.74 30.908)" style="fill:#222"/>
        <path data-name="패스 7457" d="M25.722 29.473a.49.49 0 0 1-.49-.49v-4.3a.49.49 0 0 1 .979 0v4.3a.49.49 0 0 1-.489.49z" transform="rotate(30 41.151 7.499)" style="fill:#222"/>
        <path data-name="패스 7458" d="M21.567 35a.49.49 0 0 1-.347-.835l1.219-1.225a.49.49 0 0 1 .693 0l1.225 1.225a.49.49 0 1 1-.692.692l-.878-.878-.873.877a.488.488 0 0 1-.347.144z" transform="rotate(30 50.998 15.995)" style="fill:#222"/>
        <path data-name="패스 7459" d="M23.409 40.39a.49.49 0 0 1-.348-.834l.676-.682a.49.49 0 0 1 .692 0l.688.682a.49.49 0 1 1-.689.7l-.34-.337-.331.334a.488.488 0 0 1-.348.137z" transform="rotate(30 59.459 15.666)" style="fill:#222"/>
        <path data-name="패스 7460" d="M29.726 27.1a.487.487 0 0 1-.245-.066l-3.718-2.149a.49.49 0 1 1 .49-.848l3.718 2.149a.49.49 0 0 1-.245.913z" transform="rotate(30 40.955 7.042)" style="fill:#222"/>
        <path data-name="패스 7461" d="M33.905 29.853a.49.49 0 0 1-.473-.363l-.447-1.672a.49.49 0 0 1 .347-.6L35 26.772a.49.49 0 1 1 .253.946l-1.2.32.32 1.2a.49.49 0 0 1-.473.616z" transform="rotate(30 47.245 -1.78)" style="fill:#222"/>
        <path data-name="패스 7462" d="M38.844 32.555a.49.49 0 0 1-.473-.364l-.247-.929a.49.49 0 0 1 .347-.6l.929-.247a.49.49 0 1 1 .252.946l-.456.121.121.456a.49.49 0 0 1-.473.616z" transform="rotate(30 53.852 -7.256)" style="fill:#222"/>
        <path data-name="패스 7463" d="M25.948 19.444a.49.49 0 0 1-.245-.914l3.724-2.149a.49.49 0 1 1 .489.848l-3.724 2.149a.487.487 0 0 1-.244.066z" transform="rotate(30 30.861 4.423)" style="fill:#222"/>
        <path data-name="패스 7464" d="M35.07 16.732a.49.49 0 0 1-.127-.017l-1.672-.447a.49.49 0 0 1-.346-.6L33.378 14a.49.49 0 0 1 .945.256L34 15.45l1.2.32a.49.49 0 0 1-.126.963z" transform="rotate(30 29.961 -6.326)" style="fill:#222"/>
        <path data-name="패스 7465" d="M39.471 15.34a.49.49 0 0 1-.125-.016l-.936-.247a.49.49 0 0 1-.347-.6l.254-.929a.49.49 0 0 1 .945.258l-.124.454.459.121a.49.49 0 0 1-.125.963z" transform="rotate(30 31.179 -13.243)" style="fill:#222"/>
    </g>
</svg>
