<?xml version="1.0" encoding="utf-8"?>
<!-- Generator: Adobe Illustrator 26.2.1, SVG Export Plug-In . SVG Version: 6.00 Build 0)  -->
<svg version="1.1" id="레이어_1" xmlns="http://www.w3.org/2000/svg" xmlns:xlink="http://www.w3.org/1999/xlink" x="0px"
	 y="0px" viewBox="0 0 28 28" style="enable-background:new 0 0 28 28;" xml:space="preserve">
<style type="text/css">
	.st0{
		fill:#FFFFFF;
		stroke:#222222;
		stroke-width:1.5;
		stroke-linecap:round;
		stroke-linejoin:round;
		animation-name: translateX1;
		animation-duration: 3s;
		animation-delay: 0;
		animation-timing-function: linear;
		animation-iteration-count: infinite;
		transform-origin: center;
	}
	@keyframes translateX1 {
		0% {
			-webkit-transform: translateX(0);
			-o-transform: translateX(0);
			transform: translateX(0);
		}
		50% {
			-webkit-transform: translateX(-5%);
			-o-transform: translateX(-5%);
			transform: translateX(-5%);
		}
		100% {
			-webkit-transform: translateX(0);
			-o-transform: translateX(0);
			transform: translateX(0);
		}
	}
	.st1{
		fill:#FFFFFF;
		stroke:#222222;
		stroke-width:1.5;
		stroke-linecap:round;
		stroke-linejoin:round;
		animation-name: translateX2;
		animation-duration: 3s;
		animation-delay: 0;
		animation-timing-function: linear;
		animation-iteration-count: infinite;
		transform-origin: center;
	}
	@keyframes translateX2 {
		0% {
			-webkit-transform: translateX(0);
			-o-transform: translateX(0);
			transform: translateX(0);
		}
		50% {
			-webkit-transform: translateX(5%);
			-o-transform: translateX(5%);
			transform: translateX(5%);
		}
		100% {
			-webkit-transform: translateX(0);
			-o-transform: translateX(0);
			transform: translateX(0);
		}
	}
</style>
<g>
	<path class="st1" d="M5.7,16.4c-2,0.1-3.6-1.5-3.6-3.4C2,11.3,3.3,9.7,5,9.4C5.8,6.8,8.6,5.2,11.2,6c1.9,0.6,3.3,2.2,3.6,4.2
		c1.7,0.2,2.9,1.7,2.7,3.4c-0.2,1.6-1.6,2.8-3.2,2.7H5.7z"/>
	<path class="st0" d="M10.2,22.7c-2.6,0.1-4.8-2-4.8-4.6c-0.1-2.3,1.6-4.3,3.9-4.8c1-3.5,4.8-5.6,8.3-4.5c2.6,0.8,4.4,3,4.8,5.6
		c2.3,0.3,3.9,2.3,3.6,4.6c-0.2,2.1-2.1,3.7-4.2,3.7H10.2z"/>
</g>
</svg>
