<?xml version="1.0" encoding="utf-8"?>
<!-- Generator: Adobe Illustrator 26.2.1, SVG Export Plug-In . SVG Version: 6.00 Build 0)  -->
<svg version="1.1" id="레이어_1" xmlns="http://www.w3.org/2000/svg" xmlns:xlink="http://www.w3.org/1999/xlink" x="0px"
	 y="0px" viewBox="0 0 28 28" style="enable-background:new 0 0 28 28;" xml:space="preserve">
<style type="text/css">
	.st0{
		fill:#FFFFFF;
		stroke:#222222;
		stroke-width:1.5;
		stroke-linecap:round;
		stroke-linejoin:round;
	}
	.st1{
		fill:#222222;
		animation-name: rotateX;
		animation-duration: 3s;
		animation-delay: 0;
		animation-timing-function: ease-in-out;
		animation-iteration-count: infinite;
		transform-origin: 100% 0;
	}
	@keyframes rotateX {
		0% {
			-webkit-transform: rotateX(0);
			-o-transform: rotateX(0);
			transform: rotateX(0);
			opacity: 1;
		}
		50% {
			-webkit-transform: rotateX(30deg);
			-o-transform: rotateX(30deg);
			transform: rotateX(30deg);
			opacity: .5;
		}
		100% {
			-webkit-transform: rotateX(0);
			-o-transform: rotateX(0);
			transform: rotateX(0);
			opacity: 1;
		}
	}
</style>
<path class="st0" d="M20,19.7h0.3c2.4,0.1,4.3-1.8,4.4-4.2c0.1-2.2-1.6-4.1-3.8-4.4C20.5,7.3,17,4.6,13.2,5c-2.8,0.3-5.1,2.3-5.9,5
	c-2.7,0.5-4.4,3-3.9,5.7c0.4,2.2,2.3,3.9,4.6,4"/>
<path class="st1" d="M17.2,18.4c0-0.1-0.1-0.1-0.2-0.2l-2.6-0.4l1.2-2.8c0-0.1,0-0.2,0-0.2c0-0.1-0.1-0.1-0.2-0.1h-3.7
	c-0.1,0-0.2,0.1-0.2,0.2l-0.2,4.9c0,0.1,0.1,0.2,0.2,0.2l1.8,0.3L10.8,25c-0.1,0.1,0,0.2,0.1,0.3c0,0,0.1,0,0.1,0
	c0.1,0,0.1,0,0.2-0.1l5.9-6.6C17.2,18.6,17.2,18.5,17.2,18.4z"/>
</svg>
