<?xml version="1.0" encoding="utf-8"?>
<!-- Generator: Adobe Illustrator 26.2.1, SVG Export Plug-In . SVG Version: 6.00 Build 0)  -->
<svg version="1.1" id="레이어_1" xmlns="http://www.w3.org/2000/svg" xmlns:xlink="http://www.w3.org/1999/xlink" x="0px"
	 y="0px" viewBox="0 0 28 28" style="enable-background:new 0 0 28 28;" xml:space="preserve">
<style type="text/css">
	.st0{
		fill:none;
		stroke:#F7C744;
		stroke-width:1.5;
		stroke-linecap:round;
		stroke-linejoin:round;
		animation-name: rotate;
  		animation-duration: 4s;
		animation-delay: 0;
		animation-timing-function: linear;
		animation-iteration-count: infinite;
		transform-origin: center;
	}
	@keyframes rotate {
		0% {
			-webkit-transform: rotate(0deg);
			-o-transform: rotate(0deg);
			transform: rotate(0deg);
		}
		50% {
			-webkit-transform: rotate(45deg);
			-o-transform: rotate(45deg);
			transform: rotate(45deg);
		}
		100% {
			-webkit-transform: rotate(0deg);
			-o-transform: rotate(0deg);
			transform: rotate(0deg);
		}
	}
	.st1{
		fill:#FFFFFF;
		stroke:#222222;
		stroke-width:1.5;
		stroke-linecap:round;
		stroke-linejoin:round;
		animation-name: translateY;
  		animation-duration: 1.5s;
		animation-delay: 0;
		animation-timing-function: linear;
		animation-iteration-count: infinite;
		transform-origin: center;
	}
	<!-- @keyframes translateY {
		0% {
			-webkit-transform: translateY(0);
			-o-transform: translateY(0);
			transform: translateY(0);
		}
		50% {
			-webkit-transform: translateY(10%);
			-o-transform: translateY(10%);
			transform: translateY(10%);
		}
		100% {
			-webkit-transform: translateY(0);
			-o-transform: translateY(0);
			transform: translateY(0);
		}
	} -->
</style>
<g>
	<path class="st0" d="M10.6,12.3H8.6 M26.4,12.3h-1.9 M10.6,12.3H8.6 M23.5,8.8l1.6-0.9 M9.9,16.7l1.6-0.9 M21,6.3l0.9-1.6 M13.1,20
		l0.9-1.6 M17.5,5.4V3.4 M17.5,21.2v-1.9 M14,6.3l-0.9-1.6 M21.9,20L21,18.3 M11.5,8.8L9.9,7.9 M25.2,16.7l-1.6-0.9 M22.5,12.3
		c0,2.8-2.2,5-5,5s-5-2.2-5-5s2.2-5,5-5l0,0C20.3,7.3,22.5,9.5,22.5,12.3z"/>
</g>
<path class="st1" d="M6.6,23.7c-2.6,0.1-4.7-1.9-4.8-4.5c-0.1-2.3,1.5-4.3,3.8-4.7c1-3.5,4.7-5.5,8.2-4.5c2.6,0.7,4.4,3,4.7,5.6
	c2.2,0.2,3.8,2.3,3.6,4.5c-0.2,2.1-2,3.7-4.2,3.6L6.6,23.7z"/>
</svg>
