<?xml version="1.0" encoding="utf-8"?>
<!-- Generator: Adobe Illustrator 26.2.1, SVG Export Plug-In . SVG Version: 6.00 Build 0)  -->
<svg version="1.1" id="레이어_1" xmlns="http://www.w3.org/2000/svg" xmlns:xlink="http://www.w3.org/1999/xlink" x="0px"
	 y="0px" viewBox="0 0 28 28" style="enable-background:new 0 0 28 28;" xml:space="preserve">
<style type="text/css">
	.st0{
		fill:#FFFFFF;
		stroke:#222222;
		stroke-width:1.5;
		stroke-linecap:round;
		stroke-linejoin:round;
	}
	.st1{
		fill:#222222;
		animation-name: translateY1;
		animation-duration: 1.5s;
		animation-delay: 0;
		animation-timing-function: ease-in-out;
		animation-iteration-count: infinite;
		transform-origin: center;
	}
	@keyframes translateY1 {
		0% {
			-webkit-transform: translateY(0);
			-o-transform: translateY(0);
			transform: translateY(0);
		}
		50% {
			-webkit-transform: translateY(9%);
			-o-transform: translateY(9%);
			transform: translateY(9%);
		}
		100% {
			-webkit-transform: translateY(0);
			-o-transform: translateY(0);
			transform: translateY(0);
		}
	}
	.st2{
		fill:none;
		stroke:#222222;
		stroke-width:1.5;
		stroke-linecap:round;
		stroke-linejoin:round;
		animation-name: translateY;
		animation-duration: 1.5s;
		animation-delay: 0;
		animation-timing-function: ease-in-out;
		animation-iteration-count: infinite;
		transform-origin: center;
	}
	@keyframes translateY {
		0% {
			-webkit-transform: translateY(0%);
			-o-transform: translateY(0%);
			transform: translateY(0%);
		}
		50% {
			-webkit-transform: translateY(6%);
			-o-transform: translateY(6%);
			transform: translateY(6%);
		}
		100% {
			-webkit-transform: translateY(0%);
			-o-transform: translateY(0%);
			transform: translateY(0%);
		}
	}
</style>
<path class="st0" d="M20,19.7h0.3c2.4,0.1,4.3-1.8,4.4-4.2c0.1-2.2-1.6-4.1-3.8-4.4C20.5,7.3,17,4.6,13.2,5c-2.8,0.3-5.1,2.3-5.9,5
	c-2.7,0.5-4.4,3-3.9,5.7c0.4,2.2,2.3,3.9,4.6,4"/>
<path class="st1" d="M10,21.6c0-0.3,0.3-0.6,0.6-0.6c0.3,0,0.6,0.3,0.6,0.6v0.7l0.6-0.4c0.3-0.2,0.6-0.1,0.8,0.2s0.1,0.6-0.2,0.8
	l-0.6,0.4l0.6,0.4c0.3,0.2,0.4,0.5,0.2,0.8s-0.5,0.4-0.8,0.2l-0.6-0.4v0.7c0,0.3-0.3,0.6-0.6,0.6c-0.3,0-0.6-0.3-0.6-0.6v-0.7
	l-0.6,0.4c-0.3,0.2-0.6,0.1-0.8-0.2s-0.1-0.6,0.2-0.8l0.6-0.4L8.7,23c-0.3-0.2-0.4-0.5-0.2-0.8S9,21.8,9.3,22l0.6,0.4V21.6z"/>
<path class="st2" d="M14,21l3-3.7"/>
<path class="st2" d="M15.2,24.5l3-3.7"/>
</svg>
