<?xml version="1.0" encoding="utf-8"?>
<!-- Generator: Adobe Illustrator 26.2.1, SVG Export Plug-In . SVG Version: 6.00 Build 0)  -->
<svg version="1.1" id="레이어_1" xmlns="http://www.w3.org/2000/svg" xmlns:xlink="http://www.w3.org/1999/xlink" x="0px"
	 y="0px" viewBox="0 0 28 28" style="enable-background:new 0 0 28 28;" xml:space="preserve">
<style type="text/css">
	.st0{
		fill:none;
		stroke:#F7C744;
		stroke-width:1.5;
		stroke-linecap:round;
		stroke-linejoin:round;
		animation-name: rotate;
  		animation-duration: 4s;
		animation-delay: 0;
		animation-timing-function: linear;
		animation-iteration-count: infinite;
		transform-origin: center;
	}
	@keyframes rotate {
		0% {
			-webkit-transform: rotate(0deg);
			-o-transform: rotate(0deg);
			transform: rotate(0deg);
		}
		50% {
			-webkit-transform: rotate(30deg);
			-o-transform: rotate(30deg);
			transform: rotate(30deg);
		}
		100% {
			-webkit-transform: rotate(0deg);
			-o-transform: rotate(0deg);
			transform: rotate(0deg);
		}
	}
	.st1{
		fill:#FFFFFF;
		stroke:#222222;
		stroke-width:1.5;
		stroke-linecap:round;
		stroke-linejoin:round;
	}
	.st2{
		fill:#222222;
		animation-name: translateY1;
		animation-duration: 1.5s;
		animation-delay: 0;
		animation-timing-function: ease-in-out;
		animation-iteration-count: infinite;
		transform-origin: center;
	}
	@keyframes translateY1 {
		0% {
			-webkit-transform: translateY(-3%);
			-o-transform: translateY(-3%);
			transform: translateY(-3%);
		}
		50% {
			-webkit-transform: translateY(1%);
			-o-transform: translateY(1%);
			transform: translateY(1%);
		}
		100% {
			-webkit-transform: translateY(-3%);
			-o-transform: translateY(-3%);
			transform: translateY(-3%);
		}
	}
	.st3{
		fill:#222222;
		animation-name: translateY2;
		animation-duration: 1.5s;
		animation-delay: 0;
		animation-timing-function: ease-in-out;
		animation-iteration-count: infinite;
		transform-origin: center;
	}
	@keyframes translateY2 {
		0% {
			-webkit-transform: translateY(-3%);
			-o-transform: translateY(-3%);
			transform: translateY(-3%);
		}
		50% {
			-webkit-transform: translateY(2%);
			-o-transform: translateY(2%);
			transform: translateY(2%);
		}
		100% {
			-webkit-transform: translateY(-3%);
			-o-transform: translateY(-3%);
			transform: translateY(-3%);
		}
	}
	.st4{
		fill:#222222;
		animation-name: translateY3;
		animation-duration: 1.5s;
		animation-delay: 0;
		animation-timing-function: ease-in-out;
		animation-iteration-count: infinite;
		transform-origin: center;
	}
	@keyframes translateY3 {
		0% {
			-webkit-transform: translateY(-3%);
			-o-transform: translateY(-3%);
			transform: translateY(-3%);
		}
		50% {
			-webkit-transform: translateY(3%);
			-o-transform: translateY(3%);
			transform: translateY(3%);
		}
		100% {
			-webkit-transform: translateY(-3%);
			-o-transform: translateY(-3%);
			transform: translateY(-3%);
		}
	}
</style>
<g>
	<path class="st0" d="M10.7,11.8h-2 M26.5,11.8h-1.9 M10.7,11.8h-2 M23.6,8.3l1.6-0.9 M10,16.2l1.6-0.9 M21.1,5.8L22,4.2 M13.2,19.5
		l0.9-1.6 M17.6,4.9v-2 M17.6,20.7v-1.9 M14.1,5.8l-0.9-1.6 M22,19.5l-0.9-1.7 M11.6,8.3L10,7.4 M25.3,16.2l-1.6-0.9 M22.6,11.8
		c0,2.8-2.2,5-5,5s-5-2.2-5-5s2.2-5,5-5l0,0C20.4,6.8,22.6,9,22.6,11.8z"/>
</g>
<path class="st1" d="M17.6,23.5h0.3c2.2,0.1,4-1.6,4-3.8c0.1-2-1.5-3.8-3.5-4c-0.4-3.5-3.6-6-7.1-5.6c0,0,0,0,0,0
	c-2.5,0.3-4.7,2.1-5.4,4.5c-2.4,0.4-4,2.8-3.6,5.2c0.4,2.1,2.1,3.6,4.2,3.7"/>
<g>
	<path class="st2" d="M8.5,18.1c0-0.3,0.3-0.6,0.6-0.6c0,0,0,0,0,0c0.3,0,0.6,0.3,0.6,0.6l0,0v0.7l0.6-0.4c0.3-0.2,0.6-0.1,0.8,0.2
		c0,0,0,0,0,0c0.2,0.3,0.1,0.6-0.2,0.8c0,0,0,0,0,0l-0.6,0.4l0.6,0.4c0.3,0.2,0.4,0.5,0.2,0.8c0,0,0,0,0,0c-0.2,0.3-0.5,0.4-0.8,0.2
		c0,0,0,0,0,0l-0.6-0.4v0.7c0,0.3-0.3,0.6-0.6,0.6c0,0,0,0,0,0c-0.3,0-0.6-0.3-0.6-0.6c0,0,0,0,0,0v-0.7l-0.6,0.4
		c-0.3,0.2-0.6,0.1-0.8-0.2c0,0,0,0,0,0c-0.2-0.3-0.1-0.6,0.2-0.8c0,0,0,0,0,0l0.6-0.4l-0.6-0.4C7,19.3,6.9,19,7.1,18.7c0,0,0,0,0,0
		c0.2-0.3,0.5-0.4,0.8-0.2c0,0,0,0,0,0l0.6,0.4V18.1z"/>
	<path class="st3" d="M13.9,19.4c0-0.3,0.3-0.6,0.6-0.6c0,0,0,0,0,0c0.3,0,0.6,0.3,0.6,0.6l0,0v0.7l0.6-0.4c0.3-0.2,0.6-0.1,0.8,0.2
		c0,0,0,0,0,0c0.2,0.3,0.1,0.6-0.2,0.8c0,0,0,0,0,0l-0.6,0.4l0.6,0.4c0.3,0.2,0.4,0.5,0.2,0.8c0,0,0,0,0,0c-0.2,0.3-0.5,0.4-0.8,0.2
		c0,0,0,0,0,0L15,22.2v0.7c0,0.3-0.3,0.6-0.6,0.6c0,0,0,0,0,0c-0.3,0-0.6-0.3-0.6-0.6c0,0,0,0,0,0v-0.7l-0.6,0.4
		c-0.3,0.2-0.6,0.1-0.8-0.2c0,0,0,0,0,0c-0.2-0.3-0.1-0.6,0.2-0.8c0,0,0,0,0,0l0.6-0.4l-0.6-0.4c-0.3-0.2-0.4-0.5-0.2-0.8
		c0,0,0,0,0,0c0.2-0.3,0.5-0.4,0.8-0.2c0,0,0,0,0,0l0.6,0.4V19.4z"/>
	<path class="st4" d="M9.9,23.1c0-0.3,0.3-0.6,0.6-0.6c0,0,0,0,0,0c0.3,0,0.6,0.3,0.6,0.6l0,0v0.7l0.6-0.4c0.3-0.2,0.6-0.1,0.8,0.2
		c0,0,0,0,0,0c0.2,0.3,0.1,0.6-0.2,0.8c0,0,0,0,0,0l-0.6,0.4l0.6,0.4c0.3,0.2,0.4,0.5,0.2,0.8c0,0,0,0,0,0c-0.2,0.3-0.5,0.4-0.8,0.2
		c0,0,0,0,0,0L11,25.9v0.7c0,0.3-0.3,0.6-0.6,0.6c0,0,0,0,0,0c-0.3,0-0.6-0.3-0.6-0.6c0,0,0,0,0,0v-0.7l-0.6,0.4
		c-0.3,0.2-0.6,0.1-0.8-0.2c0,0,0,0,0,0c-0.2-0.3-0.1-0.6,0.2-0.8c0,0,0,0,0,0l0.6-0.4l-0.6-0.4c-0.3-0.2-0.4-0.5-0.2-0.8
		c0,0,0,0,0,0c0.2-0.3,0.5-0.4,0.8-0.2c0,0,0,0,0,0l0.6,0.4V23.1z"/>
</g>
</svg>
