<?xml version="1.0" encoding="utf-8"?>
<!-- Generator: Adobe Illustrator 26.2.1, SVG Export Plug-In . SVG Version: 6.00 Build 0)  -->
<svg version="1.1" id="레이어_1" xmlns="http://www.w3.org/2000/svg" xmlns:xlink="http://www.w3.org/1999/xlink" x="0px"
	 y="0px" viewBox="0 0 28 28" style="enable-background:new 0 0 28 28;" xml:space="preserve">
<style type="text/css">
	.st0{
		fill:none;
		stroke:#F7C744;
		stroke-width:1.5;
		stroke-linecap:round;
		stroke-linejoin:round;
	}
	.st1{
		fill:#FFFFFF;
		stroke:#222222;
		stroke-width:1.5;
		stroke-linecap:round;
		stroke-linejoin:round;
	}
	.st2{
		fill:none;
		stroke:#222222;
		stroke-width:1.5;
		stroke-linecap:round;
		stroke-linejoin:round;
		animation-name: translateY;
		animation-duration: 2s;
		animation-delay: 0;
		animation-timing-function: ease-in-out;
		animation-iteration-count: infinite;
		transform-origin: center;
	}
	@keyframes translateY {
		0% {
			-webkit-transform: translateY(-3%);
			-o-transform: translateY(-3%);
			transform: translateY(-3%);
		}
		50% {
			-webkit-transform: translateY(2%);
			-o-transform: translateY(2%);
			transform: translateY(2%);
		}
		100% {
			-webkit-transform: translateY(-3%);
			-o-transform: translateY(-3%);
			transform: translateY(-3%);
		}
	}
</style>
<g>
	<path class="st0" d="M10.6,12.3h-2 M26.4,12.3h-1.9 M10.6,12.3h-2 M23.5,8.8l1.6-0.9 M9.9,16.7l1.6-0.9 M21,6.3l0.9-1.6 M13.1,20
		l0.9-1.6 M17.5,5.4v-2 M17.5,21.2v-1.9 M14,6.3l-0.9-1.6 M21.9,20L21,18.3 M11.5,8.8L9.9,7.9 M25.2,16.7l-1.6-0.9 M22.5,12.3
		c0,2.8-2.2,5-5,5s-5-2.2-5-5s2.2-5,5-5l0,0C20.3,7.3,22.5,9.5,22.5,12.3z"/>
</g>
<g>
	<path class="st1" d="M17.6,23.5h0.3c2.2,0.1,4-1.6,4-3.8c0.1-2-1.5-3.8-3.5-4c-0.4-3.5-3.6-6-7.1-5.6c0,0,0,0,0,0
		c-2.5,0.3-4.7,2.1-5.4,4.5c-2.4,0.4-4,2.8-3.6,5.2c0.4,2.1,2.1,3.6,4.2,3.7"/>
	<path class="st2" d="M8.2,25.3l2.4-4.1 M11.5,24.5l2.4-4.1 M13.3,26.5l2.4-4.1"/>
</g>
</svg>
