<?xml version="1.0" encoding="utf-8"?>
<!-- Generator: Adobe Illustrator 26.2.1, SVG Export Plug-In . SVG Version: 6.00 Build 0)  -->
<svg version="1.1" id="레이어_1" xmlns="http://www.w3.org/2000/svg" xmlns:xlink="http://www.w3.org/1999/xlink" x="0px"
	 y="0px" viewBox="0 0 28 28" style="enable-background:new 0 0 28 28;" xml:space="preserve">
<style type="text/css">
	.st0{
		fill:#FFFFFF;
		stroke:#222222;
		stroke-width:1.5;
		stroke-linecap:round;
		stroke-linejoin:round;
	}
	.st1{
		fill:none;
		stroke:#222222;
		stroke-width:1.5;
		stroke-linecap:round;
		stroke-linejoin:round;
		animation-name: rotateX1;
		animation-duration: 2s;
		animation-delay: 0;
		animation-timing-function: ease-in-out;
		animation-iteration-count: infinite;
		transform-origin: 100% 0;
	}
	@keyframes rotateX1 {
		0% {
			-webkit-transform: rotateX(0);
			-o-transform: rotateX(0);
			transform: rotateX(0);
		}
		50% {
			-webkit-transform: rotateX(40deg);
			-o-transform: rotateX(40deg);
			transform: rotateX(40deg);
		}
		100% {
			-webkit-transform: rotateX(0);
			-o-transform: rotateX(0);
			transform: rotateX(0);
		}
	}
	.st2{
		fill:none;
		stroke:#222222;
		stroke-width:1.5;
		stroke-linecap:round;
		stroke-linejoin:round;
		animation-name: rotateX2;
		animation-duration: 1.5s;
		animation-delay: 0;
		animation-timing-function: ease-in-out;
		animation-iteration-count: infinite;
		transform-origin: 100% 0;
	}
	@keyframes rotateX2 {
		0% {
			-webkit-transform: rotateX(0);
			-o-transform: rotateX(0);
			transform: rotateX(0);
		}
		50% {
			-webkit-transform: rotateX(20deg);
			-o-transform: rotateX(20deg);
			transform: rotateX(20deg);
		}
		100% {
			-webkit-transform: rotateX(0);
			-o-transform: rotateX(0);
			transform: rotateX(0);
		}
	}
</style>
<g>
	<path class="st0" d="M20,19.7h0.3c2.4,0.1,4.3-1.8,4.4-4.2c0.1-2.2-1.6-4.1-3.8-4.4C20.5,7.3,17,4.6,13.2,5c-2.8,0.3-5.1,2.3-5.9,5
		c-2.7,0.5-4.4,3-3.9,5.7c0.4,2.2,2.3,3.9,4.6,4"/>
	<path class="st1" d="M15.2,24.4c-1.4,0-2.6-1.2-2.6-2.6c0-0.5,0.1-0.9,0.4-1.3l0,0l1.9-3.4c0.1-0.2,0.3-0.2,0.5-0.1
		c0.1,0,0.1,0.1,0.1,0.1l1.9,3.4c0.7,1.2,0.3,2.8-0.9,3.6C16.1,24.2,15.7,24.4,15.2,24.4L15.2,24.4z"/>
	<path class="st2" d="M10.8,17.4c-1,0-1.8-0.8-1.8-1.8c0-0.3,0.1-0.6,0.2-0.9l0,0l1.3-2.3c0.1-0.1,0.2-0.2,0.3-0.1
		c0,0,0.1,0.1,0.1,0.1l1.3,2.3c0.5,0.8,0.2,1.9-0.6,2.4C11.4,17.3,11.1,17.4,10.8,17.4z"/>
</g>
</svg>
