<?xml version="1.0" encoding="utf-8"?>
<!-- Generator: Adobe Illustrator 26.2.1, SVG Export Plug-In . SVG Version: 6.00 Build 0)  -->
<svg version="1.1" id="레이어_1" xmlns="http://www.w3.org/2000/svg" xmlns:xlink="http://www.w3.org/1999/xlink" x="0px"
	 y="0px" viewBox="0 0 28 28" style="enable-background:new 0 0 28 28;" xml:space="preserve">
<style type="text/css">
	.st0{
		fill:none;
		stroke:#F7C744;
		stroke-width:1.5;
		stroke-linecap:round;
		stroke-linejoin:round;
		animation-name: rotate;
  		animation-duration: 3s;
		animation-delay: 0;
		animation-timing-function: linear;
		animation-iteration-count: infinite;
		transform-origin: center;
	}
	@keyframes rotate {
		0% {
			-webkit-transform: rotate(0);
			-o-transform: rotate(0);
			transform: rotate(0);
		}
		50% {
			-webkit-transform: rotate(15deg);
			-o-transform: rotate(15deg);
			transform: rotate(15deg);
		}
		100% {
			-webkit-transform: rotate(0);
			-o-transform: rotate(0);
			transform: rotate(0);
		}
	}
	.st1{
		fill:#FFFFFF;
		stroke:#222222;
		stroke-width:1.5;
		stroke-linecap:round;
		stroke-linejoin:round;
	}
	.st2{
		fill:#FFFFFF;
		stroke:#222222;
		stroke-width:1.5;
		stroke-linecap:round;
		stroke-linejoin:round;
		animation-name: translateY2;
		animation-duration: 3s;
		animation-delay: 0;
		animation-timing-function: linear;
		animation-iteration-count: infinite;
		transform-origin: center;
	}
	@keyframes translateY2 {
		0% {
			-webkit-transform: translateY(0);
			-o-transform: translateY(0);
			transform: translateY(0);
		}
		50% {
			-webkit-transform: translateY(5%);
			-o-transform: translateY(5%);
			transform: translateY(5%);
		}
		100% {
			-webkit-transform: translateY(0);
			-o-transform: translateY(0);
			transform: translateY(0);
		}
	}
</style>
<g>
	<path class="st0" d="M21,9.8c-1.3-2.2-0.2-5.1-0.2-5.1l-0.4,0.1c-3.2,0.3-5.5,3.2-5.2,6.4s3.2,5.5,6.4,5.2c2.4-0.3,4.4-2,5-4.2
		C22.3,12.3,21,9.8,21,9.8L21,9.8z"/>
	<path class="st2" d="M4.8,17.8c-1.8,0.1-3.3-1.4-3.4-3.2c0-1.6,1.1-3,2.7-3.3c0.7-2.5,3.3-3.9,5.8-3.2c1.8,0.5,3.1,2.1,3.3,4
		c1.6,0.2,2.7,1.6,2.5,3.2c-0.2,1.5-1.4,2.6-2.9,2.6L4.8,17.8z"/>
	<path class="st1" d="M8.9,23.7c-2.4,0.1-4.4-1.8-4.5-4.3C4.4,17.3,5.9,15.4,8,15c1-3.3,4.4-5.2,7.7-4.2c2.4,0.7,4.2,2.8,4.4,5.3
		c2.1,0.2,3.6,2.1,3.4,4.2c-0.2,2-1.9,3.5-3.9,3.4L8.9,23.7z"/>
</g>
</svg>
