<svg version="1.1"
  xmlns="http://www.w3.org/2000/svg"
  xmlns:xlink="http://www.w3.org/1999/xlink" viewBox="25 25 50 50">
  <circle cx="50" cy="50" r="20" fill="none" stroke-width="2" stroke="#FFF" stroke-linecap="round" stroke-dashoffset="0" stroke-dasharray="100, 200">
    <animateTransform attributeName="transform" attributeType="XML" type="rotate" from="0 50 50" to="360 50 50" dur="2.5s" repeatCount="indefinite"/>
    <animate attributeName="stroke-dashoffset" values="0;-30;-124" dur="1.25s" repeatCount="indefinite"/>
    <animate attributeName="stroke-dasharray" values="0,200;110,200;110,200" dur="1.25s" repeatCount="indefinite"/>
  </circle>
  <circle cx="50" cy="50" r="16" fill="#FFF"/>
  <path fill="#111" d="M50,41.4H41v0.3c1.2,1.2,1.3,2.4,1.3,4.5v12.2c0,0.1,0.1,0.3,0.3,0.3l0,0h6.7c6.7,0,9.7-4.4,9.7-8.6
	S56,41.4,49.3,41.4L49.3,41.4z M51.1,47.2C51.1,47.2,51,47.2,51.1,47.2C51,47.2,51,47.2,51.1,47.2l-4,0.1v2.3h3.3c0,0,0.1,0,0.1,0.1
	l0,0v1.2c0,0,0,0.1-0.1,0.1l0,0h-3.3v3.5c0,0,0,0.1-0.1,0.1c0,0,0,0,0,0h-1.5c0,0-0.1,0-0.1-0.1c0,0,0,0,0,0v-8.5c0,0,0-0.1,0.1-0.1
	H51c0,0,0.1,0,0.1,0.1L51.1,47.2z M54.2,54.4C54.2,54.5,54.1,54.5,54.2,54.4C54.1,54.5,54.1,54.5,54.2,54.4l-1.4,0.1
	c0,0-0.1,0-0.1-0.1c0,0,0,0,0,0V49c0,0,0-0.1,0.1-0.1l0,0h1.4c0,0,0.1,0,0.1,0.1l0,0L54.2,54.4z M53.4,47.7c-0.6,0-1.1-0.5-1.1-1.1
	c0-0.6,0.5-1.1,1.1-1.1c0.6,0,1.1,0.5,1.1,1.1c0,0.6-0.4,1.1-1,1.1C53.5,47.7,53.4,47.7,53.4,47.7L53.4,47.7z"/>
</svg>