<?xml version="1.0" encoding="utf-8"?>
<!-- Generator: Adobe Illustrator 27.5.0, SVG Export Plug-In . SVG Version: 6.00 Build 0)  -->
<svg version="1.1" id="Layer_1" xmlns="http://www.w3.org/2000/svg" xmlns:xlink="http://www.w3.org/1999/xlink" x="0px" y="0px"
	 viewBox="0 0 56 56" style="enable-background:new 0 0 56 56;" xml:space="preserve">
<style type="text/css">
	.st0{fill:#C3A634;}
	.st1{fill:#E1B051;}
	.st2{fill:#B87C29;}
	.st3{fill:#C89539;}
	.st4{fill:#85511C;}
	.st5{fill:#0B0802;}
	.st6{fill:#EFE2AD;}
	.st7{fill:#FCF9F5;}
	.st8{fill:#FAF2CD;}
	.st9{fill:#5B4F40;}
	.st10{fill:#E0C06E;}
	.st11{fill:#968C78;}
	.st12{fill:#E7CF90;}
</style>
<path class="st0" d="M0,0h56v56H0V0z"/>
<path class="st1" d="M22.5,8.1l-0.5-0.4c-0.1-0.1-0.2,0-0.3,0c0,0,0,0.1,0,0.1l0.1,0.5l0,2c0,0.1,0,0.1-0.1,0.1l0,0.1
	c0,0-0.1,0.1-0.1,0.2c-0.1,0.6-0.3,1.3-0.4,1.9c0,0.2-0.1,0.3-0.2,0.4l-0.4,0.5c-0.5,0.6-0.5,0.7,0.2,0.3c0.5-0.3,1.1-0.6,1.6-1.1
	c0.2-0.1,0.5-0.2,0.9-0.1c0.1,0,0.1,0,0.2,0.1c0.2,0.2,0.4,0.3,0.6,0.4c0.1,0,0.1,0.1,0.1,0.2c0,0.3,0,0.7-0.2,1
	c-0.4,0.5-0.7,1.2-0.7,1.8c0,0.1,0,0.2-0.1,0.2c-0.5,0.3-0.5,0.9-1,1.3c-0.2,0.2-0.4,0.3-0.6,0.5l0-1.3c0-0.2-0.1-0.3-0.3-0.3
	c0,0,0,0,0,0c-0.2,0-0.3,0.1-0.5,0.3c-0.4,0.4-0.8,0.8-1.3,1c-0.4,0.1-0.7,0.4-0.9,1c-0.1,0.2-0.2,0.4-0.4,0.6
	c0-0.9-0.4-1.3-1.2-1.2c-0.2,0-0.5,0.2-0.9,0.5c-0.1,0-0.1,0.1-0.1,0.2c-0.1,0.6-0.4,1-1,1.2c-0.2,0-0.2,0-0.2-0.2c0,0,0,0,0-0.1
	c0.7-1.2,0.7-2.7,1.8-3.7c0.3-0.3,0.7-0.5,1-0.7c2-0.7,3-2,3.1-4l0.1-2c0-0.7,0.1-1.4,0.3-2.1C21.1,7.1,21.3,7,21.5,7L22,7.2
	c0.1,0,0.1,0.1,0.1,0.1L22.5,8.1L22.5,8.1z"/>
<path class="st2" d="M22.5,8.1l0.4,0.4c0.6,0.8,1,1.6,1.4,2.5c0.1,0.3,0.4,0.6,0.9,0.9c0.3,0.2,0,0.3-0.8,0.3
	c-0.6-0.5-1.1-1.1-1.5-1.8c-0.1-0.2-0.2-0.5-0.2-0.8c0-0.4-0.2-0.8-0.5-1.1c-0.1-0.1-0.1,0-0.2,0c0,0,0,0,0,0.1l0,0.2
	c-0.1-0.1-0.1-0.3-0.1-0.5l-0.1-0.5c0-0.1,0.1-0.2,0.2-0.2c0,0,0.1,0,0.1,0L22.5,8.1L22.5,8.1z"/>
<path class="st3" d="M38.2,8.5c-0.2,0-0.3,0.2-0.3,0.4c0,0.4,0.2,0.6,0.2,1c0,0.2,0,0.4,0,0.7c0,0.5,0.4,1,0.6,1.5
	c0.2,0.7,0.2,1.3,0.1,1.8c-0.1,0.5-0.2,1-0.2,1.6c0,0.3-0.1,0.5-0.3,0.6c-0.1,0-0.1,0.1,0,0.2l0.1,0.1c0.2,0.1,0.4,0.4,0.5,0.6
	c0,0.1,0.1,0.1,0.1,0.1c0,0,0.1,0,0.1-0.1c0.1-0.2,0.2-0.4,0.2-0.7c0.1,0.1,0.2,0.2,0.2,0.3c0.2,0.5,0.4,1.1,0.7,1.6
	c0.3,0.6,0.5,1,0.5,1.5c0.2,0.9,0.3,1.7,0.3,2.6c0,0.4,0.1,1,0.3,1.4c0.4,1.1,0.7,2.2,0.9,3.3v2.2c0,0.1,0,0.1,0.1,0.2
	c0.2,0.3,0.3,0.7,0.2,1.2c0,0.2,0,0.4,0.2,0.5c0.1,0.1,0.1,0.1,0.1,0.2c0,0.4-0.2,0.8-0.4,1.1c-0.2,0.2-0.3,0.5-0.4,0.7
	c-0.2,0.7-0.7,1.4-1.5,1.6c-0.1,0-0.2,0.1-0.3,0.2c-0.3,0.5-0.4,1-1,1.2c-0.1,0-0.1,0-0.2,0c-0.2-0.1-0.4-0.1-0.6,0.1
	c0.1-0.5,0.3-1,0.5-1.5c0.1-0.2,0.3-0.5,0.5-0.7c0.3-0.4,0.4-0.9,0.3-1.5c0-0.1,0-0.2,0-0.2c0.3-0.5,0.5-1,0.9-1.5
	c0.3-0.4,0.5-0.9,0.5-1.5c0,0,0-0.1,0-0.1h-0.1c0,0,0,0,0,0c-0.6,0.6-1.4,1-1.9,1.8c-0.6,1-1.4,1.8-2.3,2.5
	c-0.2,0.1-0.2,0.3-0.2,0.5c0.1,0.5,0,1,0.6,1c0.1,0,0.1,0.1,0.1,0.2c0,0.2-0.1,0.4-0.2,0.5c-0.3,0.4-0.6,0.9-0.9,1.3
	c0,0.1,0.1,0.1,0.1,0.1l0.2,0c-0.2,0.1-0.3,0.2-0.6,0.2c-0.6,0.1-1,0-1.2-0.2c0.3-0.4,0.7-0.8,0.9-1c0.3-0.3,0.4-0.6,0.4-1
	c0-0.1-0.1-0.2-0.2-0.2c0,0,0,0,0,0c-0.2,0-0.3,0.1-0.4,0.1c-0.1,0-0.2,0-0.2-0.1c0,0,0-0.1,0-0.1c0-0.2,0.1-0.4,0-0.6
	c0-0.1,0-0.1,0-0.2l0.5-0.9c0,0,0-0.1,0-0.1c0,0,0,0,0,0c0,0-0.1,0-0.1,0c-0.4,0.4-0.8,0.6-1.2,0.7c-0.1,0-0.1,0-0.2-0.1l0-0.1l0,0
	c0.3-0.1,0.5-0.2,0.6-0.4c0.1-0.2,0.2-0.4,0.2-0.6c0-0.6,0.9-1.4,1.3-1.8c0.1-0.1,0.2-0.3,0.2-0.5c-0.1-0.4-0.1-0.7-0.2-1.1
	c0-0.1,0-0.2,0.2-0.3c0,0,0.1,0,0.1,0c0,0,0.1,0,0.1,0l0.1,0.1c0.1,0.1,0.1,0,0.2,0l0.4-0.6c0,0,0-0.1,0-0.1
	c-0.1-0.7,0.1-1.3,0.6-1.7c0.2-0.2,0.2-0.4,0.3-0.7c0-0.1,0-0.1-0.1-0.2l-0.3-0.2c-0.1,0-0.1-0.1-0.1-0.2c0-0.3,0.2-0.6,0.3-0.8
	c0,0,0-0.1,0-0.1c-0.2-0.2-0.4-0.6-0.2-0.9c0-0.1,0.1-0.2,0.1-0.3c0-0.1,0-0.1,0-0.1c-0.3-0.3-0.4-0.6-0.2-0.9c0-0.1,0-0.1,0-0.2
	l-0.5-0.5c0,0-0.1-0.1,0-0.1c0-0.1,0-0.3-0.1-0.4c0,0,0,0-0.1,0c0,0-0.1,0-0.1,0.1c-0.1,0.2-0.2,0.3-0.3,0.5l-0.1,0
	c0,0-0.1,0-0.1-0.1l0.1-0.5c0-0.1,0-0.1-0.1-0.1l-0.7,0c-0.1,0-0.1,0-0.1,0.1c0,0,0,0,0,0.1l0.3,0.4c0,0,0,0.1,0,0.1
	c0,0,0,0.1-0.1,0.1c-0.1,0-0.2,0-0.3,0l-0.7-0.3c-0.1,0-0.1,0-0.2,0l-0.5,0c-0.1,0-0.2,0-0.2-0.1l0-0.1c0-0.1-0.1-0.1-0.2-0.1
	c-0.7,0.1-1.3,0.2-2,0.1c-0.1,0-0.2,0-0.3,0.1c-0.4,0.8-1,1.5-1.7,2c-0.2,0.2-0.5,0.2-0.7,0.3c-0.1,0-0.1,0.1-0.2,0.1
	c-0.4,0.5-0.8,0.4-1.3,0.3c-0.6,0-1.2,0-1.8-0.1c-0.1-0.1-0.3-0.1-0.4-0.2c-0.1,0-0.1-0.1-0.1-0.2c-0.1-0.6-0.2-1.1-0.5-1.6
	c0-0.1-0.1-0.1-0.2-0.1c-0.1,0-0.1,0.1-0.2,0.1L24,22.9c0,0.1-0.2,0.2-0.3,0.1c0,0-0.1,0-0.1,0c0,0-0.1-0.1-0.1-0.1l-0.1-0.6
	c0-0.1,0-0.2-0.1-0.3l-0.2-0.5c0-0.1,0-0.1,0.1-0.2c0,0,0,0,0.1,0h0.1c0.1,0,0.1,0,0.1-0.1c0.1-0.4,0.3-0.8,0.5-1.1
	c0.1-0.2,0.1-0.6,0-0.8c0-0.1-0.1-0.1-0.2,0c-0.5,0.4-0.9,0.8-1.2,1.2c-0.1,0.1-0.2,0.1-0.2,0c0,0,0-0.1,0-0.1c0,0-0.1,0-0.2,0
	c-0.6,0.3-1.1,0.6-1.4,1.1c-0.1,0.2-0.3,0.3-0.6,0.4c-0.1,0-0.1,0-0.1-0.1c0.2-0.5,0.5-1,0.8-1.5c0.1-0.1,0.1-0.3-0.1-0.4
	c0-0.1-0.1-0.1-0.2,0l-0.8,0.7c0-0.1,0-0.1,0.1-0.2c0.3-0.3,0.5-0.7,0.7-1.2c0.1,0,0.2,0,0.3-0.1c0.1-0.3,0.2-0.5,0.4-0.8
	c0.2-0.1,0.4-0.3,0.6-0.5c0.4-0.4,0.5-1,1-1.3c0.1,0,0.1-0.1,0.1-0.2c0-0.7,0.2-1.3,0.7-1.8c0.2-0.3,0.3-0.6,0.2-1
	c0-0.1-0.1-0.1-0.1-0.2c-0.2-0.1-0.4-0.3-0.6-0.4c-0.1-0.1-0.1-0.1-0.2-0.1c-0.5-0.1-0.8,0-0.9,0.1c-0.6,0.4-1.1,0.8-1.6,1.1
	c-0.7,0.4-0.8,0.3-0.2-0.3l0.4-0.5c0.1-0.1,0.2-0.3,0.2-0.4l0.4-1.9c0-0.1,0-0.1,0.1-0.2l0-0.1c0,0,0.1-0.1,0.1-0.1l0-2
	c0,0.2,0,0.4,0.1,0.5c0.1,0.2,0.2,0.4,0.3,0.4c0.1,0,0.1,0.1,0.1,0.2c0,0.1-0.1,0.2-0.1,0.2c-0.4,0.2-0.4,0.7-0.1,1
	c0.2,0.3,0.4,0.6,0.5,0.9c0,0.1,0.1,0.2,0.2,0.3c0.6,0.3,1.1,0.4,1.6,0.2c0.8,0,1.1-0.1,0.8-0.3c1.1,0.1,2.1,0.2,3.1,0.4
	c0.3,0.1,0.6,0.1,0.9,0.1c0.6,0,1.1,0.2,1.7,0.2c0.6,0.1,1.2,0.2,1.7-0.1c0.3-0.2,0.5-0.4,0.8-0.6c0.4,0,0.7-0.1,0.9-0.3
	c0.2-0.2,0.4-0.4,0.5-0.6c0-0.1,0.1-0.1,0.2-0.1c0.5-0.2,0.8-0.6,1-1.1C36.1,9.5,36,9.1,36,8.8c0-0.1,0-0.1,0.1-0.2
	C36.6,8.1,37.7,8.2,38.2,8.5z"/>
<path class="st4" d="M38.2,8.5c0.4,0.2,0.7,0.6,0.9,1.2c0.5,1.4,0.6,2.9,0.4,4.4l-0.4,2.3c0,0.2,0,0.4-0.2,0.7
	c0,0.1-0.1,0.1-0.2,0.1c0,0,0,0-0.1-0.1c-0.1-0.3-0.3-0.5-0.5-0.6c-0.1,0-0.1-0.1-0.1-0.2c0,0,0,0,0-0.1c0.2-0.2,0.3-0.4,0.3-0.6
	c0-0.6,0.1-1.1,0.2-1.6c0.1-0.5,0.1-1.1-0.1-1.8c-0.1-0.5-0.6-1-0.6-1.5l0-0.7c0-0.4-0.2-0.6-0.2-1C37.9,8.6,38,8.5,38.2,8.5z
	 M24.3,12.2c-0.6,0.1-1.2,0.1-1.7-0.2c-0.1-0.1-0.2-0.2-0.2-0.3c0-0.4-0.2-0.7-0.4-0.9c-0.3-0.3-0.3-0.9,0.1-1
	c0.1,0,0.1-0.1,0.1-0.2c0-0.1,0-0.2-0.1-0.2c-0.2-0.1-0.3-0.3-0.3-0.4l0-0.2c0-0.1,0.1-0.1,0.1-0.1c0,0,0.1,0,0.1,0
	c0.3,0.3,0.5,0.7,0.5,1.1c0,0.3,0.1,0.5,0.2,0.8C23.2,11.2,23.7,11.7,24.3,12.2L24.3,12.2z"/>
<path class="st2" d="M34.1,12.8c0,0,0.1,0,0.1-0.1c0.2,0,0.3,0.1,0.3,0.3c0,0.1-0.1,0.1-0.1,0.1c-0.6,0.4-0.9,1-0.9,1.7
	c0,0.6,0.3,0.8,0.3,1.4l0,0.1c0,0-0.1,0.1-0.1,0.1c-0.2,0-0.3-0.1-0.3-0.2c-0.1-0.3-0.2-0.6-0.4-0.8c0,0-0.1-0.1-0.1-0.1
	c-0.2-0.1-0.3-0.2-0.4-0.4c0-0.1-0.1-0.1-0.1-0.2l-0.6-0.5c-0.1-0.1-0.2-0.2-0.2-0.4c0-0.1,0.1-0.1,0.1-0.1c0,0,0,0,0.1,0
	c0.3,0.2,0.6,0.2,0.8,0.2c0.1,0,0.1,0,0.2-0.1C32.8,13.8,34.1,12.8,34.1,12.8z"/>
<path class="st4" d="M37.4,14.9c-0.4,0.9-1.1,1.7-2,2.2c-0.1,0-0.2,0-0.2-0.1l-0.1-0.2c-0.1-0.1-0.2-0.1-0.3-0.1l-0.7,0.1
	c-0.1,0-0.2-0.1-0.2-0.1c0,0,0-0.1,0-0.1c0.4-0.4,0.8-0.8,1-1.3c0.1-0.3,0.3-0.6,0.6-0.8c0.1,0,0.1-0.1,0-0.2c0,0,0,0-0.1,0l-0.4,0
	c-0.1,0-0.2-0.1-0.2-0.2c0-0.1,0-0.2,0.1-0.3c0.2-0.1,0.3-0.3,0.4-0.4c0.1-0.2,0.3-0.2,0.5-0.2c0.4,0.1,0.8,0.1,1.3,0.1
	c0.1,0,0.3,0.1,0.3,0.2c0.1,0.2,0.1,0.4,0,0.7C37.7,14.4,37.6,14.6,37.4,14.9z"/>
<path class="st2" d="M23.6,17c0.2-0.7,0.5-1.4,1-2.3c0-0.1,0.1-0.1,0.2-0.1c0.1,0.1,0.2,0.1,0.2,0.3c-0.1,0.6-0.3,1.2-0.6,1.7
	c-0.4,0.5-0.3,1.1-0.5,1.7c0,0.1-0.1,0.1-0.1,0.1c-0.1,0-0.1,0-0.2-0.1c-0.1-0.1-0.1-0.3-0.1-0.5C23.5,17.6,23.5,17.3,23.6,17z"/>
<path class="st1" d="M27.3,19.4l-1,0.6c-0.3,0.1-0.5,0.1-0.8,0c-0.4-0.2-0.4-0.7-0.5-1.1c0-0.1,0-0.3,0-0.4c0.1-0.2,0.1-0.5,0.2-0.7
	c0.1-0.6,0.6-1.1,1.2-1.4c0.5-0.2,1-0.2,1.5,0.3c0.6,0.6,0.4,1.5,0.2,2.2c0,0.1-0.1,0.1-0.1,0.1C27.7,19.1,27.5,19.2,27.3,19.4
	L27.3,19.4z"/>
<path class="st2" d="M21.4,18.1c-0.2,0.2-0.3,0.5-0.4,0.8c0,0.1-0.1,0.2-0.3,0.1c-0.2-0.9-0.7-1.3-1.5-1.3c0.5-0.2,1-0.5,1.3-1
	c0.1-0.2,0.3-0.2,0.5-0.3c0.2,0,0.3,0.1,0.3,0.3c0,0,0,0,0,0L21.4,18.1z M37.9,18.9c0.4,0,0.7-0.3,0.7-0.8c0,0,0,0,0-0.1
	c0,0,0,0,0.1,0l0.1,0c0.1,0,0.2,0.1,0.1,0.2c-0.1,0.9-0.2,1.7-0.2,2.5c0,0.2-0.1,0.2-0.2,0.1c-0.1-0.1-0.2-0.4-0.3-0.8
	c0-0.1,0-0.2-0.1-0.2c-0.3-0.3-0.7-0.4-0.8-0.9c-0.1-0.8,0-1.5,0.5-2.1c0,0,0,0,0.1,0c0,0,0,0,0.1,0v0l-0.2,0.6c0,0.1,0,0.2,0.1,0.2
	c0.2,0.1,0.2,0.3,0.2,0.4c0,0.1-0.1,0.2-0.1,0.2c-0.1,0.1-0.2,0.1-0.2,0.2C37.7,18.8,37.7,18.9,37.9,18.9
	C37.8,18.9,37.8,18.9,37.9,18.9z"/>
<path class="st5" d="M19.3,17.7c0.8,0,1.3,0.5,1.5,1.3c-0.2,0.5-0.4,0.9-0.7,1.2l-0.8,0.2c-0.6-0.6-0.7-1.3-0.3-2c0,0,0,0,0-0.1
	c0,0,0,0-0.1,0c-0.1,0.2-0.3,0.3-0.4,0.5c-0.1,0-0.1,0-0.1-0.1C18.6,18.1,18.9,17.8,19.3,17.7L19.3,17.7z"/>
<path class="st6" d="M18,19.3c0,0.1,0,0.1,0,0.1c-0.2,0.2-0.3,0.3-0.4,0.3c-0.2,0.1-0.3,0.2-0.3,0.4c0,0.3,0,0.6-0.1,0.9
	c-0.1,0.5,0,0.9,0.5,1c0.2,0.1,0.4,0,0.6-0.2c0.2-0.3,0.5-0.7,0.8-1l0.2,0c0.2,0,0.2,0.1,0,0.4c-0.1,0.1-0.1,0.2-0.2,0.3L18.3,22
	c-0.1,0.1-0.3,0.3-0.4,0.4l-0.3,0.5l-0.9,0.3l0-0.1c0,0,0-0.1,0.1,0c0,0,0.1,0,0.1-0.1c0,0,0,0,0,0c-0.2-0.7-0.2-1.4-0.1-2.2
	l0.2-0.7c0.1-0.3,0.1-0.5,0.1-0.8c0-0.2-0.1-0.5-0.2-0.7c0-0.1-0.1-0.1-0.2-0.1c-0.3,0-0.5,0.2-0.6,0.4c-0.1,0.2-0.2,0.5-0.4,0.7
	c-0.2,0.2-0.3,0.5-0.4,0.8c-0.2,0.5-0.4,1-0.7,1.4c-0.1,0.1-0.2,0.2-0.3,0.3c-0.1,0.1-0.1,0.3-0.1,0.4c0,0.1,0,0.1-0.1,0.2
	C14,22.9,14,23,14,23.1c0,0.1,0,0.1,0.1,0.1c0.1,0,0.1,0,0.2,0c0.4,0.2,0.8,0.4,1.2,0.5c0,0,0.1,0.1,0.1,0.1l0,0.1
	c-0.3,0.6-0.4,1.2-0.3,1.8c0.1,0.7,0.2,1.3,0.5,1.7c0,0.1,0.1,0.1,0.2,0.2c0.1,0,0.1,0,0.1-0.1l0-0.2l0.5,0.8
	c-0.5,0.8-0.1,1.5,0.2,2.3c0,0.1,0,0.2,0,0.3c-0.3,0.4-0.7,0.7-1.2,1c-0.4,0.2-0.7,0-0.9-0.3l-0.1-0.1c-0.1,0-0.1,0-0.2,0
	c-0.2,0.1-0.3,0.1-0.4-0.1c-0.3-0.8-0.5-1.7-0.7-2.6c-0.4-1.6-0.3-3.3,0.3-4.9c0.1-0.4,0.3-0.9,0.4-1.3c0.1-0.5,0.2-1,0.5-1.6
	c0-0.1,0.1-0.2,0.2-0.3c0-0.1,0.1-0.1,0.1-0.2c0-0.1,0.1-0.3,0.2-0.4c0.5-0.2,0.8-0.6,1-1.2c0-0.1,0-0.1,0.1-0.2
	c0.4-0.4,0.7-0.5,0.9-0.5C17.7,17.9,18.1,18.4,18,19.3z"/>
<path class="st7" d="M19.3,20.4c-0.9-0.1-1.2-0.6-0.8-1.6c0.2-0.1,0.3-0.3,0.4-0.5c0,0,0,0,0.1,0c0,0,0,0,0,0.1
	C18.6,19.1,18.7,19.8,19.3,20.4L19.3,20.4z M19.4,18.5c0,0,0.1,0,0.1,0c0,0,0,0.1,0,0.1c0,0.1-0.1,0.2-0.2,0.2
	c-0.1,0.1-0.2,0-0.1-0.1C19.2,18.6,19.3,18.5,19.4,18.5z"/>
<path class="st8" d="M16.8,23.2c-0.1,0.1-0.1,0.1-0.2,0.2c-0.1,0.1-0.3,0.3-0.3,0.5c0-0.3-0.2-0.3-0.5,0c-0.5,0.4-0.6,1.2-0.6,1.7
	c-0.1-0.6,0-1.3,0.3-1.9c0-0.1,0-0.1-0.1-0.1c-0.4-0.1-0.8-0.3-1.2-0.5c0,0-0.1,0-0.2,0c-0.1,0-0.1,0-0.1-0.1c0-0.2,0-0.3,0.1-0.4
	c0-0.1,0.1-0.1,0.1-0.2c0-0.2,0-0.3,0.1-0.4c0.1-0.2,0.2-0.3,0.3-0.3c0.3-0.4,0.5-0.9,0.7-1.4c0.1-0.3,0.2-0.5,0.4-0.7
	c0.2-0.2,0.3-0.5,0.4-0.7c0.1-0.3,0.3-0.4,0.6-0.4c0.1,0,0.2,0,0.2,0.1c0.1,0.2,0.2,0.4,0.2,0.7c0,0.3,0,0.6-0.1,0.8l-0.2,0.7
	c-0.1,0.7,0,1.5,0.1,2.2l0,0c0,0-0.1,0.1-0.1,0.1C16.8,23.1,16.8,23.1,16.8,23.2C16.8,23.2,16.8,23.2,16.8,23.2z"/>
<path class="st9" d="M18.4,18.7c0,0,0,0.1,0.1,0.1c-0.4,1-0.1,1.5,0.8,1.6l0.8-0.2c0,0.1-0.1,0.1-0.1,0.2c-0.2,0.2-0.5,0.4-0.8,0.5
	l-0.2,0c-0.8,0-1.1-0.8-1.1-1.5c0,0,0.1,0,0-0.1C18.2,19.1,18.3,18.9,18.4,18.7z"/>
<path class="st7" d="M20.1,18.8C20,18.9,20,19,20.1,19c0.1,0,0.2,0,0.2-0.1c0.1-0.1,0.1-0.2,0-0.3C20.2,18.6,20.1,18.7,20.1,18.8z"
	/>
<path class="st10" d="M25.8,23.9c-0.1,0-0.2,0-0.2,0.2c0,0.5,0,0.9-0.1,1.2c0,0.2-0.1,0.4-0.1,0.6c0,0.5-0.2,0.8,0,1.3l0,1.1
	c0,0.1,0,0.2,0.1,0.2c0.4,0.4,0.7,0.9,1,1.2c0.4,0.5,0.4,0.9,0.1,1.4c-0.3,0.4-0.5,0.7-1,0.8c-0.7,0.1-1.3,0.4-1.9,0.8
	c-0.4,0.3-0.9,0.4-1.3,0.5c-0.3,0.1-0.3,0.2,0,0.4l1,0.4c1,0.4,1.9,0.5,2.9,0.3c0.6-0.1,0.9-0.8,1.3-1.3c0.3-0.5,1-0.5,1.4-0.9
	c0.4-0.3,0.8-0.6,1.2-0.9c0.1,0,0.1-0.1,0.1-0.2c0.1-0.4,0.2-0.7,0.6-0.9c0.8-0.5,1.6-0.9,2.3-1.1c0.7-0.2,1.3-0.6,2-0.9
	c0.1,0,0.2,0,0.2,0.1c0,0.1,0,0.1,0,0.2c-0.3,0.6-0.6,1.2-1.2,1.6l-1.5,1.3c-0.3,0.3-0.3,0.8-0.4,1.2c0,0.4-0.3,0.7-0.7,1
	c-0.4,0.3-0.8,0.5-1.2,0.8c-0.2,0.1-0.3,0.3,0,0.5c0,0,0.1,0.1,0.2,0.1s0.2,0,0.2,0.1l0.6,0.5c0.1,0,0.1,0.1,0,0.2c0,0,0,0,0,0
	c0,0,0,0-0.1,0c-0.8,0.2-1.6,0.3-1.8,1.1c0,0.1,0,0.3,0.1,0.3c0,0,0,0,0,0c0.1,0,0.3,0,0.4,0c0.6-0.3,1.2-0.5,1.9-0.3
	c0.4,0.2,0.8,0.2,1.1,0.2c0.4,0,0.7,0.1,1,0.4c0.1,0,0.2,0.1,0.2,0.1c0.2,0,0.3-0.1,0.4-0.2c0.2,0.2,0.6,0.3,1.2,0.2
	c0.2,0,0.4-0.1,0.6-0.2l1.8-1.1c0.2-0.2,0.4-0.2,0.6-0.1c0.1,0,0.1,0,0.2,0c0.6-0.2,0.7-0.7,1-1.2c0.1-0.1,0.2-0.2,0.3-0.2
	c0.8-0.2,1.2-0.9,1.5-1.6c0.1-0.2,0.2-0.5,0.4-0.7c0.3-0.3,0.4-0.6,0.4-1c0-0.1,0-0.2-0.1-0.2c-0.2-0.1-0.2-0.3-0.2-0.5
	c0.1-0.5,0-0.9-0.2-1.2c0-0.1-0.1-0.1-0.1-0.2l0-2.2c0.2,0.7,0.4,1.3,0.7,1.9c0.3,0.8,0.5,1.4,0.6,1.8c0.2,1.3,0.3,2.6,0.1,3.9
	c-0.1-0.3-0.3-0.3-0.4,0.2c-0.2,0.5-0.1,0.9-0.4,1.4c-0.2,0.4-0.3,0.8-0.3,1.3c-0.1,0.7-0.1,1.3-0.2,1.9c0,0.3-0.2,0.6-0.5,0.7
	c-0.1,0-0.1,0.1-0.1,0.2c-0.1,0.3-0.2,0.5-0.4,0.7c-0.4,0.4-1.3,1.2-1.4,1.8c-0.1,0.3-0.3,0.5-0.6,0.6c0.2-0.2,0.3-0.5,0.4-0.8
	c0.1-0.4,0.2-0.7,0.2-0.8c0.1-0.3,0.3-0.6,0.5-0.9c0.6-1,0.4-2.1,0.2-3.2c0-0.1-0.1-0.2-0.3-0.2c-0.5,0-1,0-1.4,0.2
	c-0.8,0.3-1.4,0.6-2.1,1.2c-0.5,0.5-0.8,1.1-1.3,1.5c-0.6,0.4-1.5,0.8-2.5,1.3c-1.1,0.4-2.2,0.9-3.4,1.3c-0.3,0.1-0.6,0.3-0.9,0.4
	c-1.1,0.6-1.6,1.8-2.8,2c-0.4,0.1-0.7,0.2-1.1,0.5c-0.5,0.3-1,0.4-1.6,0.5c-0.6,0.1-1.2,0.4-1.8,0.5c-0.6-0.2-1.1-0.4-1.8-0.6
	c-0.6-0.2-1.2-0.5-1.7-0.8c-0.7-0.4-1.3-0.8-1.9-1.2c-0.8-0.5-1.5-1.1-2.2-1.8c-0.7-0.7-0.7-1.5-0.2-2.3c0.3-0.9,0.5-1.7,0.5-2.4
	c0.1-0.8,0.1-1.7,0.2-2.5c0-0.2,0.1-0.7,0.3-1.3c0.2-0.7,0.3-1.5,0.1-2.3c0-0.1,0-0.1,0.1-0.1c0.1,0,0.1,0,0.2,0
	c0.2,0.3,0.6,0.5,0.9,0.3c0.5-0.2,0.9-0.6,1.2-1c0.1-0.1,0.1-0.2,0-0.3c-0.3-0.8-0.8-1.5-0.2-2.3c0,0.1,0,0.3-0.1,0.5
	c0,0.1,0,0.3,0.1,0.4l0.1,0.2c0.1,0.4,0.3,0.6,0.6,0.8c0.5,0.3,0.9,0.5,1.4,0.6c0.4,0.1,0.8,0,1.2-0.5c0.3,0,0.8,0.1,1.5,0.3
	c0.4,0.1,0.7,0,1-0.3c0.2-0.1,0.7-0.2,1.4-0.2c0.3,0,0.9-0.2,1.8-0.6c0,0,0.1,0,0.1-0.1c0,0,0-0.1,0-0.1v-0.1c0,0,0-0.1-0.1-0.1h0
	c-0.7,0.2-1.4,0.4-2.1,0.4c-0.3,0-0.5,0.1-0.8,0.2c-0.5,0.2-1.4-0.3-1.8-0.5c0-0.3,0.1-0.5,0.3-0.6c0.1,0,0.1-0.1,0.1-0.2
	c0.1-0.1,0.2-0.2,0.4-0.2c0.2,0,0.5,0,1-0.1c0.3-0.1,0.4-0.2,0.4-0.4c0-0.1,0-0.2-0.1-0.2c-0.1-0.1-0.2-0.1-0.2-0.2c0,0,0-0.1,0-0.1
	l0.1,0c0,0,0,0,0.1,0c0,0.1,0.1,0.2,0.2,0.2c0.1,0,0.1,0,0.2-0.1c0.2-0.2,0.3-0.5,0.3-0.8c0.1-0.2,0.4-0.5,0.7-0.6
	c0.1,0,0.1-0.1,0.1-0.2c-0.1-0.4-0.2-0.8-0.5-1c-0.3-0.3-0.7-0.4-1-0.7c-0.4-0.3-1-0.3-1.4-0.1c0,0,0,0-0.1,0v0c0,0,0,0.1-0.1,0.1
	c-0.1,0-0.2,0.1-0.3,0.1c-0.3-0.3-0.7-0.6-1.1-0.8c-0.7-0.4-1.6-0.4-2.4-0.4l0.3-0.5c0.1-0.2,0.2-0.3,0.4-0.4l0.7-0.6
	c0.1-0.1,0.2-0.2,0.2-0.3c0.2-0.3,0.2-0.4,0-0.4c0.3-0.1,0.5-0.2,0.8-0.5l0.8-0.7c0.1-0.1,0.1-0.1,0.2,0c0.1,0.1,0.2,0.3,0.1,0.4
	c-0.3,0.5-0.6,1-0.8,1.5c0,0.1,0,0.1,0.1,0.1c0.2,0,0.4-0.2,0.6-0.4c0.3-0.4,0.8-0.8,1.4-1.1c0.1,0,0.1,0,0.2,0c0,0,0.1,0.1,0.1,0.1
	c0,0.2,0.1,0.2,0.2,0c0.3-0.4,0.7-0.8,1.2-1.2c0.1-0.1,0.1,0,0.2,0c0.1,0.3,0.1,0.5,0,0.8c-0.2,0.4-0.4,0.7-0.5,1.1
	c0,0.1-0.1,0.1-0.1,0.1h-0.1c-0.1,0-0.1,0-0.1,0.1v0.1l0.2,0.5c0,0.1,0.1,0.2,0.1,0.3l0.1,0.6c0,0.1,0.1,0.2,0.2,0.2
	c0,0,0.1,0,0.1,0c0,0,0.1-0.1,0.1-0.1l0.3-0.9c0-0.1,0.2-0.1,0.2-0.1c0,0,0.1,0,0.1,0.1c0.3,0.5,0.5,1,0.5,1.6
	c0,0.1,0.1,0.2,0.1,0.2C25.5,23.7,25.7,23.8,25.8,23.9L25.8,23.9z"/>
<path class="st5" d="M30.1,21c-0.1,0.1-0.3,0.1-0.4,0.1c-0.1,0-0.1,0-0.2,0.1c-0.2,0.2-0.4,0.5-0.7,0.6C28.4,22,28,22,27.6,21.9
	c-0.4-0.6-0.4-1.1-0.1-1.6c0-0.1,0.1-0.1,0.1-0.1c0,0,0,0,0.1,0c0.1,0.1,0.2,0.2,0.3,0.2c0.1,0,0.2-0.1,0.1-0.2
	c-0.4-0.9-1.4,0.1-1.5,0.5c-0.2,0.5,0,0.9,0.5,1.2l0,0.1c0,0,0,0.1,0,0.1c0,0-0.1,0-0.1,0c-0.4-0.1-1-0.2-1.2-0.5
	c-0.1-0.2-0.2-0.4-0.3-0.6c0-0.1,0-0.1,0.1-0.2l0.9-0.8l1-0.6c0.7-0.2,1.3-0.1,1.8,0.2c0.3,0.3,0.7,0.6,1,1.1c0,0,0.1,0.1,0.1,0.1
	L30.1,21L30.1,21z"/>
<path class="st1" d="M18,19.4c0,0.7,0.4,1.5,1.1,1.5c-0.3,0.3-0.6,0.6-0.8,1c-0.1,0.2-0.3,0.3-0.6,0.2c-0.5-0.1-0.7-0.5-0.5-1
	c0.1-0.3,0.1-0.6,0.1-0.9c0-0.2,0.1-0.4,0.3-0.4C17.7,19.6,17.8,19.5,18,19.4L18,19.4z"/>
<path class="st7" d="M27.5,21.9C27.5,22,27.3,22,27,22c-0.5-0.4-0.7-0.8-0.5-1.2c0.2-0.4,1.1-1.4,1.5-0.5c0,0.1,0,0.2-0.1,0.2
	c-0.1,0-0.3-0.1-0.3-0.2c0,0-0.1-0.1-0.1,0c0,0,0,0,0,0.1C27.1,20.8,27.2,21.3,27.5,21.9z"/>
<path class="st8" d="M37.9,26.7c-0.4-0.1-0.9-0.1-1.3-0.1c-0.4,0-0.9,0-1.3,0c-0.9-0.1-1.8,0.1-2.6,0.4c-1.1,0.5-2.1,0.9-3,1.4
	c-0.1,0.1-0.2,0.1-0.3,0.1c-0.1,0-0.2,0-0.4-0.1c-0.6-0.3-1.1-0.3-1.7-0.1c-0.1,0-0.2,0-0.2,0c-0.2-0.1-0.3-0.3-0.4-0.5
	c-0.1-0.2-0.2-0.3-0.4-0.3c-0.4,0-0.7-0.1-0.9-0.4c-0.2-0.5,0-0.8,0-1.3c0-0.2,0-0.4,0.1-0.6c0.1-0.4,0.1-0.8,0.1-1.2
	c0-0.1,0.1-0.2,0.2-0.2c0.6,0,1.2,0.1,1.8,0.1c0.6,0,0.9,0.1,1.4-0.3c0-0.1,0.1-0.1,0.2-0.1c0.2-0.1,0.5-0.2,0.7-0.3
	c0.7-0.6,1.3-1.2,1.7-2c0.1-0.1,0.2-0.2,0.3-0.1c0.7,0.1,1.4,0.1,2-0.1c0.1,0,0.2,0,0.2,0.1l0,0.1c0,0.1,0.1,0.1,0.2,0.1l0.5,0
	c0.1,0,0.2,0,0.2,0l0.7,0.3c0.1,0,0.2,0,0.3,0c0,0,0.1,0,0.1-0.1c0,0,0-0.1,0-0.1L35.6,21c0,0,0-0.1,0-0.1c0,0,0,0,0.1,0l0.7,0
	c0.1,0,0.1,0,0.1,0.1l-0.1,0.5c0,0,0,0.1,0.1,0.1c0,0,0,0,0.1,0c0.1-0.1,0.2-0.3,0.3-0.5c0,0,0-0.1,0.1-0.1c0,0,0.1,0,0.1,0
	c0.1,0.1,0.1,0.2,0.1,0.4c0,0.1,0,0.1,0,0.1l0.5,0.5c0,0.1,0,0.1,0,0.2c-0.2,0.3-0.1,0.6,0.2,0.9c0,0,0.1,0.1,0,0.2
	c0,0.1-0.1,0.2-0.1,0.2c-0.2,0.3,0,0.7,0.2,0.9c0,0,0,0.1,0,0.1c-0.2,0.2-0.3,0.5-0.3,0.8c0,0.1,0,0.2,0.1,0.2l0.3,0.2
	c0.1,0,0.1,0.1,0.1,0.2C38.1,26.3,38,26.5,37.9,26.7z"/>
<path class="st9" d="M30.1,21c0,0.1,0,0.2-0.1,0.3c-0.4,0.4-0.9,1-1.4,1.1c-0.7,0.2-1.1,0-1.7-0.2c0,0,0.1,0,0.1,0c0,0,0-0.1,0-0.1
	l0-0.1c0.3,0,0.5,0,0.6-0.1c0.4,0.1,0.8,0.1,1.2-0.1c0.3-0.1,0.5-0.4,0.7-0.6c0.1-0.1,0.1-0.1,0.2-0.1C29.8,21.1,30,21.1,30.1,21
	L30.1,21z M17.7,22.9c0.8,0,1.7-0.1,2.4,0.4c-0.1,0.1-0.2,0.1-0.2,0.2c-0.1,0.3-0.3,0.4-0.6,0.3c-0.7-0.2-1.5-0.3-2.2-0.2
	c-0.1,0-0.2,0-0.3-0.1c0-0.1,0.1-0.2,0.2-0.2C16.8,23.3,17.7,22.9,17.7,22.9z"/>
<path class="st5" d="M20.1,23.3c0.4,0.2,0.8,0.5,1.1,0.8l0.1,0.2c-0.1,0.5-0.4,1.3-0.9,1.6c-0.1,0-0.2,0.1-0.2,0.2
	c0,0.1-0.1,0.2-0.2,0.2c-0.3,0.2-0.7,0.4-1,0.6c-0.3,0.2-0.8,0.3-1.2,0.1c-0.5-0.3-1-0.7-1.3-1.3l0,0c0-0.1,0-0.2,0-0.3
	c0-0.1,0.1-0.1,0.2,0c0.1,0.1,0.2,0.1,0.3,0c0.3-0.1,0.3-0.2,0-0.2c-0.2-0.1-0.5-0.2-0.7-0.4c-0.1-0.2-0.1-0.5,0-0.8
	c0-0.2,0.2-0.4,0.3-0.5c0.1,0.1,0.2,0.1,0.3,0.1c0.7-0.1,1.5,0,2.2,0.2c0.3,0.1,0.5,0,0.6-0.3C19.8,23.4,19.9,23.4,20.1,23.3z"/>
<path class="st6" d="M23.7,26.5c0-0.1,0-0.2-0.2-0.2c-0.1,0-0.1-0.1-0.1-0.2c0.1-0.2,0-0.4-0.2-0.6c-0.3-0.3-0.6-0.6-0.8-0.9
	c-0.2-0.2-0.5-0.4-0.8-0.4c-0.1,0-0.1,0-0.1,0.2c-0.1,0-0.1,0-0.3-0.1l-0.1-0.2c0.1-0.1,0.2-0.1,0.3-0.1c0,0,0.1,0,0.1-0.1v0
	c0,0,0,0,0.1,0c0.5-0.1,1-0.2,1.4,0.1c0.3,0.3,0.7,0.4,1,0.7c0.2,0.3,0.4,0.6,0.5,1c0,0.1,0,0.1-0.1,0.2
	C24.1,26,23.8,26.2,23.7,26.5L23.7,26.5z"/>
<path class="st7" d="M16.3,24c0,0.3,0,0.6,0,0.8l0.1,0.9l0,0c-0.7,0.5-0.8,1.1-0.4,1.7l0,0.2c0,0.1-0.1,0.1-0.1,0.1
	c-0.1,0-0.2-0.1-0.2-0.2c-0.3-0.5-0.4-1.1-0.5-1.7c0-0.5,0.1-1.4,0.6-1.7C16.2,23.7,16.3,23.7,16.3,24L16.3,24z M23.7,26.5
	c0,0.4-0.1,0.6-0.3,0.8c-0.1,0.1-0.1,0.1-0.2,0.1c-0.1,0-0.2-0.1-0.2-0.2c0,0,0,0-0.1,0l-0.1,0c-0.1,0-0.1,0.1,0,0.1
	c0,0.1,0.1,0.2,0.2,0.2c0.1,0,0.1,0.1,0.1,0.2c0,0.2-0.2,0.3-0.4,0.4c-0.5,0.1-0.8,0.1-1,0.1c-0.2-0.1-0.4-0.2-0.5-0.4
	c0-0.1-0.1-0.1,0-0.2c0-0.2,0.1-0.5,0-0.7c0-0.3,0.1-0.5,0.3-0.7c0.1-0.1,0.1-0.1,0.1-0.2v-1.5c0-0.1,0-0.2,0.1-0.2
	c0.3,0,0.6,0.2,0.8,0.4c0.2,0.3,0.5,0.6,0.8,0.9c0.2,0.2,0.2,0.4,0.2,0.6c0,0.1,0,0.1,0.1,0.2C23.7,26.3,23.7,26.4,23.7,26.5z"/>
<path class="st11" d="M21.2,24.3c0.1,0.1,0.2,0.1,0.3,0.1v1.5c0,0.1,0,0.1-0.1,0.2c-0.2,0.2-0.3,0.4-0.3,0.7c0,0.2,0,0.5,0,0.7
	c0,0.1,0,0.1,0,0.2c0.1,0.2,0.3,0.4,0.6,0.4c-0.2,0-0.3,0.1-0.4,0.2c0,0.1-0.1,0.1-0.1,0.2c-0.2,0.1-0.3,0.4-0.3,0.6
	c-0.7-0.3-1.4-0.5-2.1-0.8c-0.6-0.2-1.3-0.2-1.9,0c-0.1,0.3-0.1,0.6,0.1,0.9c0.1,0.2,0.4,0.4,0.6,0.4c0.3,0.1,1,0.2,1.2,0.4
	c0,0,0.1,0.1,0.2,0.1l0.9,0c-0.4,0.5-0.8,0.6-1.2,0.5c-0.5-0.1-1-0.4-1.4-0.6c-0.3-0.2-0.5-0.5-0.6-0.8c0-0.1,0-0.1-0.1-0.2
	c-0.1-0.1-0.1-0.3-0.1-0.4c0-0.2,0.1-0.3,0.1-0.5l-0.5-0.8c-0.4-0.6-0.2-1.1,0.4-1.7c0.4,0.6,0.8,1,1.3,1.3c0.4,0.2,0.9,0.1,1.2-0.1
	c0.3-0.2,0.7-0.5,1-0.6c0.1,0,0.1-0.1,0.2-0.2c0-0.1,0.1-0.2,0.2-0.2C20.8,25.6,21.1,24.8,21.2,24.3L21.2,24.3z M16.4,24.8
	c0.2,0.2,0.5,0.3,0.7,0.4c0.3,0.1,0.3,0.1,0,0.2c-0.1,0-0.2,0-0.3,0c-0.1,0-0.1,0-0.2,0c0,0,0,0.1,0,0.3
	C16.5,25.6,16.4,24.8,16.4,24.8z"/>
<path class="st9" d="M19.3,25.8c0.3,0.1,0.5,0.2,0.6,0.1c0-0.1-0.2-0.2-0.5-0.3c-0.3-0.1-0.5-0.1-0.6-0.1
	C18.8,25.5,19,25.7,19.3,25.8L19.3,25.8z"/>
<path class="st11" d="M22.5,26.1c0,0.1,0,0.1-0.1,0.1c0,0-0.1,0-0.1,0c0,0,0-0.1,0-0.1C22.4,25.9,22.5,25.9,22.5,26.1z"/>
<path class="st12" d="M37.9,26.7c-0.5,0.4-0.7,1-0.6,1.7c0,0,0,0.1,0,0.1l-0.4,0.6c0,0.1-0.1,0.1-0.2,0l-0.1-0.1c0,0-0.1,0-0.1,0
	c0,0-0.1,0-0.1,0c-0.1,0-0.2,0.1-0.2,0.3c0,0.4,0.1,0.7,0.2,1.1c0,0.2,0,0.3-0.2,0.5c-0.4,0.4-1.3,1.2-1.3,1.8
	c0,0.2-0.1,0.4-0.2,0.6c-0.2,0.2-0.4,0.3-0.6,0.4v0l0,0.1c0,0.1,0.1,0.1,0.2,0.1c0.4-0.1,0.8-0.3,1.2-0.7c0,0,0.1,0,0.1,0
	c0,0,0,0.1,0,0.1l-0.5,0.9c0,0,0,0.1,0,0.2c0,0.2,0,0.4,0,0.6c0,0.1,0,0.2,0.1,0.2c0,0,0,0,0,0l0.1,0c0.1-0.1,0.3-0.1,0.4-0.1
	c0,0,0.1,0,0.1,0s0,0.1,0.1,0.1c0,0.4-0.1,0.7-0.4,1c-0.3,0.3-0.6,0.7-0.9,1c-0.1,0.1-0.2,0.2-0.4,0.2c-0.1,0-0.2,0-0.2,0
	c-0.3-0.2-0.6-0.4-1-0.4c-0.4,0-0.8-0.1-1.1-0.2c-0.6-0.2-1.3,0-1.9,0.3c-0.1,0.1-0.3,0.1-0.4,0c-0.1,0-0.2-0.2-0.2-0.3c0,0,0,0,0,0
	c0.3-0.8,1.1-1,1.8-1.1c0.1,0,0.1-0.1,0.1-0.2c0,0,0,0,0-0.1l-0.6-0.5c-0.1-0.1-0.1-0.1-0.2-0.1c-0.1,0-0.1,0-0.2-0.1
	c-0.2-0.2-0.2-0.3,0-0.5c0.4-0.2,0.9-0.5,1.2-0.8c0.4-0.3,0.6-0.6,0.7-1c0.1-0.4,0-1,0.4-1.3l1.5-1.3c0.5-0.4,0.8-1.1,1.2-1.6
	c0-0.1,0-0.2,0-0.2c0-0.1-0.1-0.1-0.2-0.1c-0.7,0.3-1.3,0.7-2,0.9c-0.8,0.3-1.5,0.6-2.3,1.1c-0.3,0.2-0.4,0.6-0.6,0.9
	c0,0.1-0.1,0.1-0.1,0.2c-0.5,0.3-0.9,0.6-1.2,0.9c-0.4,0.4-1.1,0.4-1.4,0.9c-0.3,0.5-0.6,1.2-1.3,1.3c-1,0.2-2,0.1-2.9-0.3l-1-0.4
	c-0.3-0.1-0.3-0.2,0-0.4c0.5-0.2,0.9-0.2,1.4-0.5c0.6-0.4,1.2-0.6,1.9-0.8c0.5-0.1,0.7-0.5,1-0.8c0.4-0.5,0.3-0.9-0.1-1.4
	c-0.4-0.4-0.7-0.8-1-1.2c-0.1-0.1-0.1-0.1-0.1-0.2l0-1.1c0.2,0.3,0.5,0.4,0.9,0.4c0.2,0,0.4,0.1,0.4,0.3c0.1,0.2,0.2,0.4,0.4,0.5
	c0.1,0.1,0.2,0.1,0.2,0c0.6-0.2,1.2-0.1,1.7,0.1c0.1,0.1,0.2,0.1,0.4,0.1c0.1,0,0.2,0,0.3-0.1c0.9-0.5,1.9-1,3-1.4
	c0.8-0.3,1.7-0.5,2.6-0.4c0.4,0,0.9,0,1.3,0C37,26.6,37.4,26.6,37.9,26.7L37.9,26.7z"/>
<path class="st11" d="M22.1,27.5L22.1,27.5c-0.1-0.1-0.1-0.2,0-0.2c0,0,0.1,0,0.1,0c0,0,0,0,0,0.1c0,0.1,0,0.1-0.1,0.1
	C22.2,27.6,22.2,27.6,22.1,27.5C22.1,27.5,22.1,27.5,22.1,27.5z"/>
<path class="st9" d="M20,27.9C20,27.9,19.9,27.9,20,27.9c-0.1-0.1-0.1-0.1-0.1-0.1c0-0.1,0-0.2,0.1-0.2c0.1,0,0.1,0,0.2,0
	c0,0,0,0.1,0,0.1C20.2,27.9,20.2,27.9,20,27.9L20,27.9z"/>
<path class="st5" d="M20.9,29.2c0.4,0.2,1.3,0.6,1.8,0.5c0.3-0.1,0.5-0.2,0.8-0.2c0.7,0,1.5-0.1,2.1-0.4c0,0,0.1,0,0.1,0.1l0,0v0.1
	c0,0,0,0.1-0.1,0.1c-0.9,0.4-1.5,0.6-1.8,0.6c-0.7,0.1-1.1,0.2-1.4,0.2c-0.3-0.1-0.6-0.3-1-0.4c-0.3-0.1-0.7-0.2-1-0.3
	c-1.2-0.3-2.4-0.6-3.6-1.1c0.6-0.2,1.3-0.2,1.9,0C19.5,28.7,20.2,28.9,20.9,29.2L20.9,29.2z"/>
<path class="st9" d="M16.9,28.4c1.2,0.5,2.4,0.9,3.6,1.1c0.4,0.1,0.7,0.2,1,0.3c0.3,0.1,0.7,0.3,1,0.4c-0.3,0.3-0.6,0.4-1,0.3
	c-0.5-0.2-1-0.3-1.5-0.3l-0.9,0c-0.1,0-0.1,0-0.2-0.1c-0.2-0.2-0.9-0.4-1.2-0.4c-0.2-0.1-0.5-0.2-0.6-0.4
	C16.8,29,16.8,28.7,16.9,28.4z"/>
<path class="st2" d="M38.1,36.1l-1.8,1.1h-0.2c-0.1,0-0.1-0.1-0.1-0.1c0,0,0,0,0-0.1l0.8-1.2c0.1-0.2,0.2-0.3,0.2-0.5
	c0-0.1,0-0.1-0.1-0.1c-0.6,0-0.6-0.5-0.6-1c0-0.2,0-0.4,0.2-0.5c0.9-0.7,1.7-1.6,2.3-2.5c0.5-0.8,1.3-1.2,1.9-1.8c0,0,0.1,0,0.1,0
	c0,0,0,0,0,0.1c0,0.6-0.2,1.1-0.5,1.5c-0.4,0.5-0.6,1-0.9,1.5c0,0.1-0.1,0.1,0,0.2c0.1,0.6,0,1.1-0.3,1.5c-0.2,0.2-0.3,0.4-0.5,0.7
	C38.4,35.1,38.2,35.6,38.1,36.1z"/>
<path class="st1" d="M16.3,33.8c-0.2,0-0.2,0.2,0,0.5c0.1,0.1,0.2,0.2,0.3,0.3c0.9,0.8,1.4,1.6,2.7,2.1c0.1,0,0.1,0.1,0.2,0.2
	c0.1,0.2,0.2,0.4,0.2,0.6c0.2,0.5,0.5,0.9,0.9,1.2c0.1,0,0.1,0.1,0.2,0c0.1,0,0.1-0.1,0.2-0.1c0,0,0-0.1,0.1-0.1c0,0,0.1,0,0.1,0
	c0,0,0.1,0,0.1,0c0.6,0.5,0.8,1.8,1,2.6c0,0.1,0.1,0.2,0.2,0.1c0,0,0.1,0,0.1,0c0.5-0.5,0.9-1.2,1-2c0-0.1,0.1-0.1,0.1-0.1h0.1
	c0,0,0,0,0,0v0l0,0.3c0,0.1,0,0.1,0.1,0.1c0.1,0,0.1,0,0.1-0.1l0.5-1c0.1-0.2,0.3-0.5,0.6-0.6c0.6-0.3,1.2-0.6,1.8-1
	c0.4-0.4,0.9-0.7,1.5-0.9c0,0,0-0.1,0-0.1c0,0-0.1,0-0.1,0c0.4-0.2,0.7-0.3,0.9-0.4c0.5-0.3,0.7-0.2,0.5,0.4c-0.1,0.4-0.2,0.7-0.4,1
	c-0.1,0.2-0.3,0.5-0.5,0.6c-0.7,0.4-1.2,1-1.9,1.4c-0.8,0.4-1.4,1-1.7,1.9c-0.2,0.8-0.7,1.4-1.1,2c-0.5,0.7-1.2,1.2-2,1.5
	c-0.2,0.1-0.5,0.2-0.7,0.3c-0.1,0-0.1,0-0.2,0c-0.1-0.3-0.2-0.5-0.2-0.8c-0.1-1-0.4-2-0.8-2.9c-0.1-0.3-0.4-0.6-0.6-0.9
	c-1-1-2-2-3-3c-0.4-0.5-0.6-1-0.9-1.5c-0.3-0.7-0.4-1.5-0.3-2.2c0,0,0,0,0.1,0c0,0,0.1,0,0.1,0c0,0,0.1,0,0.1,0
	C15.5,33.1,16.3,33.8,16.3,33.8z"/>
<path class="st2" d="M16.3,33.8l0.9,0.7c0.2,0.2,0.4,0.3,0.6,0.5c0.6,0.7,1.8,0.9,2.7,1.2c0.5,0.1,1.2,0.2,2,0.2
	c1.9-0.1,3.8-0.2,5.6-0.5c0,0,0,0.1,0,0.1c0,0,0,0,0,0c-0.5,0.2-1,0.5-1.4,0.9c-0.5,0.4-1.2,0.7-1.8,1c-0.3,0.2-0.5,0.4-0.6,0.6
	c-0.1,0.4-0.3,0.7-0.5,1c0,0.1-0.1,0.1-0.1,0.1c-0.1,0-0.1,0-0.1-0.1l0-0.3c0,0,0,0,0,0h-0.1c-0.1,0-0.1,0-0.1,0.1
	c-0.1,0.7-0.5,1.4-1,2c0,0-0.1,0.1-0.2,0c-0.1,0-0.1-0.1-0.1-0.1c-0.2-0.8-0.4-2.1-1-2.6c0,0-0.1,0-0.1,0c0,0-0.1,0-0.1,0
	c0,0,0,0-0.1,0.1c0,0.1-0.1,0.1-0.2,0.1c-0.1,0-0.1,0-0.2,0c-0.4-0.3-0.7-0.7-0.9-1.2c-0.1-0.2-0.1-0.4-0.2-0.6
	c0-0.1-0.1-0.1-0.2-0.2c-1.2-0.5-1.7-1.3-2.7-2.1c-0.1-0.1-0.2-0.2-0.3-0.3C16.2,34,16.2,33.8,16.3,33.8z"/>
<path class="st3" d="M43.4,34.5c0.1,0.4,0.1,0.9,0.2,1.3c0.1,0.6,0.1,1.2,0.1,1.8c0,0.7,0.2,1.4,0.3,2.1c0,0.5,0,1,0,1.5
	c0,0.9-1.8,2.3-2.7,3.1c-0.8,0.7-1.5,1-2.2,0.9c-0.4-0.2-0.9-0.2-1.6,0c-0.2,0.1-0.2,0-0.1-0.1c0.3-0.3,0.5-0.7,0.7-1.1
	c0-0.1,0.1-0.1,0.1-0.2c0.2-0.2,0.5-0.3,0.8-0.5c0.3-0.1,0.5-0.3,0.6-0.6c0.1-0.5,1-1.4,1.4-1.8c0.2-0.2,0.3-0.4,0.4-0.7
	c0-0.1,0.1-0.1,0.1-0.1c0.3-0.2,0.5-0.4,0.5-0.7c0-0.6,0.1-1.3,0.2-1.9c0-0.4,0.1-0.9,0.3-1.3c0.3-0.5,0.2-0.9,0.4-1.4
	C43.1,34.3,43.3,34.2,43.4,34.5z"/>
<path class="st12" d="M39,43.3c-0.3,0.1-0.5,0.3-0.8,0.5c-0.1,0.1-0.1,0.1-0.1,0.2c-0.1,0.4-0.4,0.8-0.7,1.1
	c-0.2,0.2-0.1,0.2,0.1,0.1c0.7-0.2,1.2-0.2,1.6,0c0,0.2-0.1,0.4-0.2,0.6c-0.1,0.1-0.3,0.2-0.5,0.3c-0.9,0.3-1.7,0.6-2.4,1
	c-0.5,0.3-1.1,0.3-1.7,0.5c-0.2,0-0.4,0-0.5,0.1c-0.1,0.1-0.1,0.1-0.2,0.1c-0.4-0.1-0.9,0-1.3,0C31.8,47.9,31.4,48,31,48
	c-2.6,0-5.3,0.1-7.9-0.1c-0.4,0-0.7-0.2-1-0.3l-1.1-0.7c0.6-0.1,1.2-0.4,1.8-0.5c0.5-0.1,1.1-0.2,1.6-0.5c0.3-0.2,0.7-0.4,1.1-0.5
	c1.2-0.3,1.8-1.5,2.8-2c0.3-0.2,0.6-0.3,0.9-0.4c1.1-0.4,2.3-0.8,3.4-1.3c1.1-0.4,1.9-0.9,2.5-1.3c0.5-0.3,0.8-1,1.3-1.5
	c0.7-0.6,1.3-0.8,2.1-1.2c0.4-0.2,0.8-0.2,1.4-0.2c0.1,0,0.2,0.1,0.3,0.2c0.1,1.1,0.3,2.2-0.2,3.2c-0.2,0.3-0.3,0.6-0.5,0.9
	c0,0.1-0.1,0.4-0.2,0.8C39.3,42.8,39.2,43.1,39,43.3z"/>
</svg>
