<!-- by TradingView --><svg xmlns="http://www.w3.org/2000/svg" width="56" height="56" viewBox="0 0 56 56"><path fill="#FCE7D0" d="M0 0h56v56H0z"/><path d="M21.32 22.5c1.44-1.67 5.06-2.36 6.62-2.36 1.56 0 5.19.69 6.63 2.37-.1.7.23 2.86 1.18 4.1l-7.8-.92-7.81.91a7.16 7.16 0 0 0 1.18-4.1z" fill="#302E2E"/><path d="M21.18 22.46a3.82 3.82 0 0 1-4.26 4.87c-4.19-1.93-5.34-5.04-5.4-7.33a8.35 8.35 0 0 1 2.76-6.3c.5-.5 1.22 0 1.05.68-.08.3-.15.61-.19.93-.75 5.85 6.04 7.15 6.04 7.15z" fill="#F7941C"/><path d="M14.73 14s-.03 0-.08.05a7.86 7.86 0 0 0-2.6 5.94c.05 2.11 1.1 5.01 5.02 6.86a3.3 3.3 0 0 0 3.68-3.98 10.67 10.67 0 0 1-3.16-1.38c-1.72-1.13-3.37-3.08-2.96-6.24.04-.34.1-.67.2-1 .03-.14-.03-.21-.07-.24h-.03zm6.55 7.97l.31.06.09.3c.9 3.1-1.7 5.97-4.84 5.5l-.08-.01-.06-.04c-4.4-2.02-5.64-5.31-5.7-7.77a8.84 8.84 0 0 1 2.91-6.67 1.14 1.14 0 0 1 1.44-.15c.41.27.62.78.48 1.3-.07.3-.13.59-.17.88a5.2 5.2 0 0 0 2.51 5.3 9.5 9.5 0 0 0 3.1 1.3h.01z" fill="#221E21"/><path d="M34.82 22.46a3.82 3.82 0 0 0 4.26 4.87c4.19-1.93 5.34-5.04 5.4-7.33a8.35 8.35 0 0 0-2.76-6.3c-.5-.5-1.22 0-1.05.68.08.3.15.61.19.93.75 5.85-6.04 7.15-6.04 7.15z" fill="#F7941C"/><path d="M22.04 22.91l-.15-.68 3.64-1.55v.62a.1.1 0 0 1-.07.09l-.69.2c.08.7.13 1.25-.26 1.87-.94 1.46-2.51.18-.97-1.5l-1.35 1c-.05.04-.13.02-.15-.05zM33.89 22.91l.16-.68-3.65-1.55v.62c0 .04.03.07.07.09l.69.2c-.07.7-.13 1.25.27 1.87.93 1.46 2.5.18.96-1.5l1.35 1c.05.04.13.02.15-.05z" fill="#58595B"/><path d="M17.54 22.05a9.26 9.26 0 0 0 3.4 1.55c-.24 3.14-2.55 3.58-3.69 3.14a8.76 8.76 0 0 1-2.9-2.19 7.19 7.19 0 0 1-.93-8.42c-1.66 5.92 1.42 7.92 2.08 8.38l-1.42-2c1.99 2.27 3.83 2.4 3.46-.46zM38.45 22.05a9.26 9.26 0 0 1-3.41 1.55c.24 3.14 2.55 3.58 3.69 3.14a8.76 8.76 0 0 0 2.9-2.19c1.17-1.3 3.01-4.34.93-8.42 1.66 5.92-1.42 7.92-2.08 8.38l1.42-2c-1.99 2.27-3.83 2.4-3.45-.46z" fill="#AF5B03"/><path d="M16.71 39.45c-2.06-2.9-.71-6.76.73-9.07l4.97-1 5.53-.23 5.72.28 5.12 1c1.5 2.3 2.89 6.17.75 9.06-2.4 3.25-7.58 4.15-11.59 4.15-3.88 0-8.9-.94-11.23-4.2z" fill="#fff"/><path d="M28.32 40.22c-1.04 0-1.7-1.27-1.65-2.19.7 0 1.32-.27 1.65-1a1.66 1.66 0 0 0 1.66 1c.04.92-.62 2.19-1.66 2.19z" fill="#E92F78"/><path d="M28.33 36.57l.17.4c.3.68.96.92 1.46.88l.2.18c.03.5-.13 1.08-.44 1.54-.31.46-.79.83-1.4.83-.6 0-1.08-.37-1.4-.83a2.66 2.66 0 0 1-.44-1.54l.19-.18c.33 0 .62-.06.87-.2s.46-.36.6-.69l.19-.4zm-1.48 1.64c.02.38.16.81.4 1.16.26.4.64.67 1.07.67.43 0 .8-.27 1.08-.67.23-.35.37-.77.39-1.15a1.86 1.86 0 0 1-1.47-.8c-.16.24-.36.42-.59.54-.27.15-.56.23-.88.25z" fill="#141313"/><path d="M22.47 36.2c1.22-1.15 3.12-2.45 5.47-2.45a8.64 8.64 0 0 1 6.02 2.44c.4.37 1.04.41 1.5.09a6.82 6.82 0 0 1 4.97-1.39c-.31-1.1-1.05-3.43-1.52-4.05-.6-.78-5.07-1.55-10.97-1.55-5.67 0-9.98.77-10.55 1.55-.45.62-1.16 2.96-1.46 4.05 2.12-.28 3.87.61 5 1.4.46.34 1.12.3 1.54-.1z" fill="#F6A426"/><path d="M26.47 35.07c.1-.26.46-.4.73-.4h2.06c.27 0 .62.14.72.4.2.5-.28.98-.81 1.23-.3.15-.61.19-.94.19-.33 0-.65-.04-.94-.19-.54-.25-1-.74-.82-1.23z" fill="#141313"/><path d="M27.49 35.04c.04-.07.19-.1.3-.1h.87c.11 0 .26.03.3.1.09.12-.11.24-.34.3-.12.04-.26.05-.4.05-.13 0-.26 0-.39-.04-.22-.07-.42-.19-.34-.31z" fill="#fff"/><path d="M28.51 38.35c0 .43-.08.78-.19.78-.1 0-.19-.35-.19-.78 0-.42.09-.77.2-.77.1 0 .18.35.18.77z" fill="#141313"/><path d="M27.94 25.7c-5.18.03-8.48 1.22-11.4 2.95v1.5l1.47.55c2.55-1.09 4.94-1.5 9.93-1.5 5 0 7.38.41 9.94 1.5l1.46-.54v-1.5c-2.92-1.74-6.21-2.93-11.4-2.97z" fill="#94959A"/><path d="M27.94 25.2c5.3.03 8.68 1.25 11.68 3.03.15.09.24.25.24.42v1.5c0 .21-.13.4-.33.47l-1.46.55a.54.54 0 0 1-.4-.01c-2.46-1.05-4.77-1.46-9.73-1.46-4.96 0-7.26.4-9.72 1.46a.54.54 0 0 1-.4 0l-1.47-.54a.5.5 0 0 1-.33-.46v-1.5c0-.18.1-.34.25-.43 3-1.78 6.38-3 11.67-3.04zm-10.88 3.73v.88l.94.35c2.57-1.07 5.04-1.46 9.94-1.46 4.9 0 7.37.4 9.95 1.46l.93-.35v-.88c-2.78-1.6-5.94-2.7-10.88-2.74-4.93.04-8.1 1.14-10.88 2.74z" fill="#221E21"/><path d="M21.08 28.52a33.7 33.7 0 0 1 6.86-.69c1.7 0 5.05.2 6.86.69.85.22 1.14-.69 1.14-.69l.8.37c-.05.15-.19.48-.38.59.16-.02.5-.06.62-.5l1.42.73c-.1.12-.28.4-.24.54.04.15.24.22.33.23l-.66.32c-1.32-.32-3.17-1.41-9.89-1.41-6.71 0-8.56 1.1-9.88 1.41l-.67-.32c.1-.01.3-.08.33-.23.04-.14-.14-.42-.23-.54l1.42-.73c.11.44.45.48.61.5-.19-.1-.33-.44-.38-.6l.8-.36s.3.91 1.14.69z" fill="#58595B"/><path d="M23.64 34.2c.7 0 1.28-.77 1.28-1.72 0-.96-.58-1.73-1.28-1.73-.7 0-1.28.77-1.28 1.73 0 .14.01.28.04.41-1.24.06-2.18 1.17-2.5 1.73.44-.53 1.58-1.47 2.68-1.17l.05.08c-3.46 2.87-1.03 6.74-1.03 6.74s-1.77-4.3 1.65-6.14c.12.05.25.08.39.08z" fill="#141313"/><path d="M24.44 32.3c0 .35-.19.63-.42.63-.24 0-.43-.28-.43-.63 0-.36.2-.64.43-.64.23 0 .42.28.42.64z" fill="#fff"/><path d="M32.91 34.2c-.7 0-1.28-.77-1.28-1.72 0-.96.57-1.73 1.28-1.73.7 0 1.28.77 1.28 1.73 0 .14-.02.28-.04.41 1.24.06 2.18 1.17 2.5 1.73-.44-.53-1.58-1.47-2.68-1.17l-.05.08c3.45 2.87 1.02 6.74 1.02 6.74s1.78-4.3-1.64-6.14a.98.98 0 0 1-.39.08z" fill="#141313"/><path d="M32.1 32.3c0 .35.2.63.43.63.24 0 .43-.28.43-.63 0-.36-.2-.64-.43-.64-.23 0-.42.28-.42.64z" fill="#fff"/><path d="M28.13 36.12h.38v.55c0 .97-.82 1.49-1.6 1.52-.4.02-.8-.08-1.12-.32a1.39 1.39 0 0 1-.54-1.1c0-.1.08-.19.18-.2.1 0 .2.08.2.18 0 .4.17.67.4.84.22.17.54.26.86.24.64-.03 1.24-.44 1.24-1.16v-.55z" fill="#141313"/><path d="M28.51 36.12h-.38v.55c0 .97.82 1.49 1.6 1.52.4.02.8-.08 1.12-.32.32-.24.53-.61.55-1.1 0-.1-.08-.19-.19-.2-.1 0-.19.08-.2.18 0 .4-.16.67-.4.84-.22.17-.53.26-.85.24-.65-.03-1.25-.44-1.25-1.16v-.55z" fill="#141313"/><path d="M40.98 34.6a12.16 12.16 0 0 0-1.8-4.46l-.64.4a11.45 11.45 0 0 1 1.7 4.18 5.74 5.74 0 0 1-.93 4.5c-1.15 1.54-2.97 2.56-5.04 3.19-2.07.63-4.34.86-6.33.86V44c2.05 0 4.4-.24 6.56-.9 2.15-.65 4.15-1.74 5.42-3.46a6.45 6.45 0 0 0 1.06-5.03zM15.39 34.64c.27-1.68.99-3.26 1.73-4.44l.64.37a11.65 11.65 0 0 0-1.63 4.18 5.9 5.9 0 0 0 .9 4.49c1.1 1.54 2.85 2.55 4.84 3.17 1.98.63 4.16.86 6.07.86V44c-1.96 0-4.23-.24-6.31-.9-2.08-.65-4-1.73-5.23-3.45a6.6 6.6 0 0 1-1.01-5.01zM24.34 20.23c1.27-.41 2.59-.64 3.6-.64 1.02 0 2.34.23 3.6.64 1.26.4 2.52 1 3.38 1.77l.18.17-.02.24c-.07 1-.07 1.76.25 2.48.31.72.98 1.46 2.39 2.32.66.31 1.29.66 1.9 1.02a.5.5 0 0 1 .18.67.53.53 0 0 1-.69.2c-.73-.35-1.36-.68-1.9-1.01-2.41-1.13-5.25-1.87-9.27-1.9-4.02.03-6.85.77-9.26 1.9-.55.33-1.18.66-1.9 1.01a.53.53 0 0 1-.7-.2.5.5 0 0 1 .19-.67c.61-.36 1.24-.7 1.9-1.02 1.4-.86 2.07-1.6 2.39-2.32.32-.72.32-1.49.24-2.48l-.02-.24.18-.17a9.5 9.5 0 0 1 3.38-1.77zm-3.32 5.9c1.94-.58 4.17-.92 6.92-.94 2.75.02 4.99.36 6.93.93-.2-.27-.37-.55-.5-.83a5.5 5.5 0 0 1-.34-2.71 8.98 8.98 0 0 0-2.82-1.4c-1.18-.38-2.39-.59-3.27-.59-.87 0-2.08.2-3.27.59-1.09.35-2.1.83-2.81 1.4a5.5 5.5 0 0 1-.35 2.7c-.12.3-.29.57-.5.84z" fill="#221E21"/><path d="M27.94 18.32c.24 0 .58 0 .89.05.62.1.95.5 1.12.9.14.35.18.75.21 1.01v.04a524.96 524.96 0 0 0 .52 4.78l.04.36.01.13-.52.06.52-.06.06.56h-5.6l.06-.56.52.06-.52-.06.01-.13.04-.36a757.63 757.63 0 0 0 .52-4.78v-.04c.03-.26.07-.66.21-1.01.17-.4.5-.8 1.12-.9.27-.04.56-.05.79-.05zm-1.6 6.83h3.3a757.58 757.58 0 0 1-.51-4.74 2.86 2.86 0 0 0-.15-.77c-.08-.19-.17-.26-.31-.28a5.16 5.16 0 0 0-1.36 0c-.14.02-.23.1-.31.28-.09.21-.12.48-.15.77a529.11 529.11 0 0 1-.5 4.74z" fill="#221E21"/><path d="M25.77 25.65s.33-2.96.56-5.28c.06-.55.14-1.4.9-1.5a5.25 5.25 0 0 1 1.52 0c.76.1.84.95.9 1.5.23 2.32.56 5.28.56 5.28h-4.44z" fill="#94959A"/><path d="M26.9 22.32c.38.77.8.87 1.04.87s.67-.1 1.04-.87l.29 2.96h-2.65l.28-2.96z" fill="#58595B"/><path d="M41.27 14s.03 0 .08.05a7.86 7.86 0 0 1 2.6 5.94c-.05 2.11-1.1 5.01-5.02 6.86a3.3 3.3 0 0 1-3.68-3.98 10.67 10.67 0 0 0 3.16-1.38c1.72-1.13 3.37-3.08 2.96-6.24a8.13 8.13 0 0 0-.2-1c-.03-.14.03-.21.07-.24h.03zm-6.55 7.97l-.31.06-.09.3a4.33 4.33 0 0 0 4.84 5.5l.08-.01.06-.04c4.4-2.02 5.64-5.31 5.7-7.77a8.84 8.84 0 0 0-2.91-6.67 1.14 1.14 0 0 0-1.44-.15c-.41.27-.62.78-.48 1.3.07.3.13.59.17.88a5.2 5.2 0 0 1-2.51 5.3 9.5 9.5 0 0 1-3.1 1.3h-.01z" fill="#221E21"/></svg>