<?xml version="1.0" encoding="UTF-8"?>
<svg id="_레이어_2" data-name="레이어 2" xmlns="http://www.w3.org/2000/svg" width="249.86" height="99.86" viewBox="0 0 249.86 99.86">
  <defs>
    <style>
      .cls-1, .cls-2 {
        fill: #fff;
      }

      .cls-3 {
        fill: #e09d4d;
      }

      .cls-2 {
        stroke: #e09d4d;
        stroke-miterlimit: 10;
        stroke-width: 3px;
      }
    </style>
  </defs>
  <g id="HOME">
    <g>
      <g>
        <path class="cls-2" d="m70.65,13.64c-.06-.06-.11-.11-.17-.17-.07-.07-.13-.14-.2-.2-15.75-15.71-41.24-15.7-56.98.03-15.73,15.73-15.74,41.23-.03,56.98.01.01.02.02.03.03h0s26.31,26.31,26.31,26.31l1.24,1.23s.02.03.06.06c.07.07.37.44.82.44s.84-.45.92-.52c.03-.02.2-.2.2-.2h0s14.91-14.91,14.91-14.91l11.04-11.11,1.39-1.4,1.57-1.58h0s5.36-5.16,8.35-14.28c-.04-.01-.07,0-.1.03.29-.89.56-1.79.79-2.7,3.33-13.15-.06-27.65-10.17-38.04Z"/>
        <g>
          <path class="cls-3" d="m66.75,17.9s-.1-.1-.14-.15c-.06-.06-.11-.12-.17-.18-13.63-13.59-35.69-13.58-49.31.03-13.61,13.61-13.62,35.68-.03,49.31,0,0,.02.02.03.03h0s22.77,22.77,22.77,22.77l1.07,1.07s.02.02.05.05c.06.06.32.38.71.38s.73-.39.79-.45c.02-.02.18-.18.18-.18h0s12.91-12.9,12.91-12.9l9.56-9.62,1.21-1.21,1.36-1.37h0s4.64-4.47,7.22-12.36c-.03-.01-.06,0-.09.03.25-.77.48-1.55.68-2.34,2.88-11.38-.05-23.93-8.8-32.92Z"/>
          <path class="cls-1" d="m56.62,64.77c-4.41-4.45-10.09-5.47-8.54-11.07,2.24-8.12,15.74-11.58,15.54-26.59,0-.62-.06-1.25-.17-1.87-.03.06-.07.11-.12.17-.12.14-.27.24-.44.29.16-.05.31-.15.44-.29.05-.05.08-.11.12-.17.15-.25.18-.54.08-.83-.29-.83-.66-1.65-1.11-2.44-.16-.28-.33-.56-.51-.83-.48-.73-1.44-.96-2.2-.53l-.5.28h0c-.38.04-.79.14-1.24.3-3.16,1.07-8.52,4.78-12.26,2.16-7.13-6-19.37-.44-20.16,8.61.46.35.9.75,1.33,1.21,1.95,2.12,2.36,5.31,2.84,8.64.22,1.51.45,3.06.85,4.54.64,2.37,2.74,5.28,2.97,6.06.67,2.33-2.46.81-3.16.29-1.5-1.11-4.02-3.55-4.93-6.25-1.49-4.43-1.79-4.09-1.79-4.09,0,0-.69,2.29.75,5.31,1.67,3.5,4.43,6.15,6.5,7.09.76.35,2.06.55,2.72.37.91-.24,1.44-.67,1.27-2.6-.13-1.36-1.85-3.92-1.85-3.92,0,0,6.43,2.6,6.9,3.37.76,1.25-.63,1.53-.72,1.55.04,0,.51.12,1.15.3,1.26.37,3.13,1.05,3.4,1.87.57,1.73-1.47,1.75-1.78,1.75.41.04,4.41.55,3.73,2.53-.39,1.16-2.81,1.31-5.35,1.09-1.83-.16-3.72-.5-4.96-.79-1.71-.4-7.45-2.37-10.63-4.16,1.29,2.85.11,5.58-1.63,8.45-.02.03-.31.4-.34.44l18.81,18.74,16.91-16.77c-.6-.94-1.34-1.65-1.94-2.24Zm1.78-41.67c-.04-.1-.07-.21-.09-.31.02.1.05.21.09.31.11.27.25.52.43.75-.18-.23-.32-.48-.43-.75Zm1.78,1.81c.48.26.97.47,1.46.63-.49-.16-.97-.37-1.46-.63Zm-.72-3.6l.05-.03.41-.23c.63-.36,1.42-.17,1.82.44.15.22.29.45.42.69.37.66.68,1.33.92,2.02.08.24.06.48-.06.68-.03.05-.06.09-.1.14-.2.23-.49.33-.8.26-.81-.17-1.61-.52-2.41-1.03-.41-.32-.7-.69-.88-1.14-.27-.67,0-1.43.62-1.79Zm-.57-.19s0,0,0,0c0,0,0,0,0,0Zm-20.05,13.15c-.86.56-2.17.07-2.93-1.09-.75-1.16-.67-2.56.2-3.12.86-.56,2.17-.07,2.93,1.09.75,1.16.67,2.56-.2,3.12Z"/>
        </g>
      </g>
      <polygon class="cls-3" points="112.17 15.53 112.17 46.23 122.29 46.23 122.29 33.91 129.38 34.25 129.38 27.33 122.18 27.11 122.29 23.96 131.46 24.13 131.46 14.51 112.17 15.53"/>
      <path class="cls-3" d="m144.11,18.51c-7.27,0-13.16,5.89-13.16,13.16s5.89,13.16,13.16,13.16,13.16-5.89,13.16-13.16-5.89-13.16-13.16-13.16Zm0,17.8c-2.56,0-4.64-2.08-4.64-4.64s2.08-4.64,4.64-4.64,4.64,2.08,4.64,4.64-2.08,4.64-4.64,4.64Z"/>
      <path class="cls-3" d="m211.12,60.33c-7.27,0-13.16,5.89-13.16,13.16s5.89,13.16,13.16,13.16,13.16-5.89,13.16-13.16-5.89-13.16-13.16-13.16Zm0,17.8c-2.56,0-4.64-2.08-4.64-4.64s2.08-4.64,4.64-4.64,4.64,2.08,4.64,4.64-2.08,4.64-4.64,4.64Z"/>
      <path class="cls-3" d="m182.96,25.48c-.11-8.21-10.96-10.18-12.99-10.29-2.02-.11-7.14-.11-11.13,1.91l-.45,28.56h9.5v-8.94l1.97.06,3.65,8.88,9.45-1.52-5.17-9.84s5.29-.62,5.17-8.83Zm-15.29,5.34v-8.15s6.3-.73,6.3,4.08-6.3,4.08-6.3,4.08Z"/>
      <polygon class="cls-3" points="98.4 57 97.72 68.18 104.69 68.18 103.79 87.1 113.77 87.1 114.2 67.08 120.94 67.03 119.89 56.92 98.4 57"/>
      <polygon class="cls-3" points="122.76 57.98 121.56 87.1 130.93 87.1 131.53 74.84 135.66 74.77 135.66 87.74 146.45 87.1 145.7 57.08 135.88 57.08 135.51 69.37 132.13 69.45 132.21 57.53 122.76 57.98"/>
      <polygon class="cls-3" points="149.08 57.08 147.88 87.1 165.95 87.1 166.84 77.49 157.19 77.64 157.49 74.39 164.07 74.39 164.15 67.38 158.02 67.46 157.94 64.8 167.67 64.72 167.67 57.08 149.08 57.08"/>
      <path class="cls-3" d="m174.51,57.98v28.94s22.19,2.55,22.27-13.57c.07-16.12-11.77-18.82-22.27-15.37Zm6.97,17.17v-8.1c.82,0,5.47,0,5.62,3.67.15,3.67-5.62,4.42-5.62,4.42Z"/>
      <path class="cls-3" d="m247.27,58.08l-.22,7.93s-6.3-2.81-10.29.62c-3.99,3.43-3.49,11.19,2.81,11.86,0,0,2.47.34,2.76-2.31l-3.71-.06-.62-6.92,11.86.28-.56,14.21s-4.5,5.53-14.51,2.94c-9.2-2.38-9.8-12.07-9.52-16.96.28-4.89,7.12-17.24,22-11.6Z"/>
    </g>
  </g>
</svg>