<svg width="318" height="124" viewBox="0 0 318 124" fill="none" xmlns="http://www.w3.org/2000/svg">
<path fill-rule="evenodd" clip-rule="evenodd" d="M88.2186 15.3148C88.2886 15.3948 88.3586 15.4655 88.4286 15.5355C101.359 28.8255 105.699 47.3653 101.429 64.1653C101.129 65.3253 100.799 66.4755 100.419 67.6155C100.459 67.5755 100.499 67.5555 100.549 67.5755C96.7286 79.2255 89.8786 85.8255 89.8786 85.8255L89.8686 85.8353L87.8586 87.8548L86.0786 89.6448L71.9586 103.855L52.8886 122.915L52.6286 123.175C52.6175 123.185 52.6012 123.201 52.5802 123.222C52.4126 123.387 51.9475 123.845 51.4586 123.845C50.9722 123.845 50.6334 123.5 50.4778 123.342C50.4479 123.311 50.4248 123.288 50.4086 123.275C50.3686 123.235 50.3386 123.205 50.3386 123.205L48.7486 121.635L15.0986 87.9954L15.0586 87.9554C-5.03137 67.8154 -5.02137 35.205 15.0986 15.095C35.2186 -5.01497 67.8286 -5.03501 87.9586 15.055L88.2186 15.3148ZM83.4396 20.9654L83.4488 20.9745C94.6388 32.4745 98.3888 48.5143 94.6988 63.0643C94.4488 64.0743 94.1587 65.0646 93.8287 66.0546C93.8587 66.0146 93.8987 66.0045 93.9387 66.0145C90.6287 76.1045 84.6988 81.8143 84.6988 81.8143V81.8251L82.9587 83.5751L81.4187 85.1249L69.1987 97.4247L52.6987 113.925L52.4787 114.144C52.4684 114.154 52.4534 114.168 52.4341 114.187C52.2851 114.333 51.8837 114.724 51.4588 114.724C51.026 114.724 50.7206 114.41 50.5944 114.28C50.5748 114.259 50.5595 114.244 50.5487 114.234C50.5087 114.204 50.4888 114.175 50.4888 114.175L49.1187 112.814L19.9988 83.6952L19.9588 83.6551C2.57875 66.2251 2.58875 38.0144 19.9988 20.6044C37.4088 3.19436 65.6287 3.18432 83.0487 20.5643C83.0711 20.5867 83.0946 20.6092 83.1184 20.632C83.1689 20.6805 83.2211 20.7306 83.2687 20.785C83.3257 20.8515 83.3827 20.9084 83.4396 20.9654Z" fill="white"/>
<path d="M70.4987 80.9056C64.8587 75.2156 57.5987 73.9154 59.5787 66.7454C62.4487 56.3554 79.7087 51.9354 79.4587 32.7454C79.4487 31.9554 79.3787 31.1448 79.2487 30.3548C79.2087 30.4248 79.1587 30.5047 79.0987 30.5647C78.9387 30.7447 78.7487 30.8649 78.5387 30.9349C78.7487 30.8649 78.9387 30.7347 79.0987 30.5647C79.1587 30.4947 79.2087 30.4248 79.2487 30.3548C79.4387 30.0348 79.4687 29.6652 79.3487 29.2952C78.9787 28.2352 78.4987 27.1851 77.9287 26.1751C77.7187 25.8151 77.5087 25.4555 77.2787 25.1155C76.6687 24.1855 75.4387 23.8849 74.4687 24.4349L73.8387 24.7952C73.3487 24.8452 72.8187 24.9751 72.2587 25.1751C68.2187 26.5451 61.3587 31.2856 56.5787 27.9456C47.4587 20.2656 31.8087 27.3856 30.7987 38.9456C31.3787 39.3856 31.9487 39.8954 32.4987 40.4954C34.9987 43.2054 35.5187 47.2852 36.1387 51.5452C36.4187 53.4852 36.7087 55.4548 37.2187 57.3548C38.0287 60.3948 40.7287 64.1148 41.0187 65.1048C41.8787 68.0848 37.8687 66.1449 36.9787 65.4749C35.0687 64.0549 31.8387 60.9347 30.6787 57.4847C28.7687 51.8147 28.3987 52.2552 28.3987 52.2552C28.3987 52.2552 27.5087 55.1852 29.3587 59.0452C31.4887 63.5252 35.0287 66.9055 37.6687 68.1155C38.6387 68.5555 40.2987 68.825 41.1487 68.595C42.3187 68.285 42.9987 67.7347 42.7687 65.2747C42.6087 63.5347 40.3987 60.2649 40.3987 60.2649C40.3987 60.2649 48.6187 63.5855 49.2287 64.5755C50.2087 66.1655 48.4187 66.5347 48.2987 66.5647C48.3487 66.5747 48.9587 66.7154 49.7687 66.9554C51.3787 67.4254 53.7687 68.2948 54.1187 69.3548C54.8487 71.5648 52.2387 71.5952 51.8387 71.5852C52.3587 71.6452 57.4787 72.2855 56.6087 74.8255C56.1087 76.3055 53.0087 76.4951 49.7687 76.2151C47.4287 76.0151 45.0187 75.5754 43.4287 75.2054C41.2387 74.6854 33.8987 72.175 29.8387 69.885C31.4887 73.525 29.9787 77.0149 27.7487 80.6849C27.7187 80.7249 27.3487 81.1954 27.3187 81.2454L51.3687 105.205L72.9987 83.7649C72.2087 82.5749 71.2687 81.6656 70.4987 80.9056ZM72.7787 27.6253C72.7287 27.4953 72.6887 27.3649 72.6587 27.2249C72.6887 27.3549 72.7287 27.4953 72.7787 27.6253ZM74.1387 25.3255L74.1987 25.2952L74.7187 24.9954C75.5187 24.5354 76.5387 24.785 77.0487 25.555C77.2387 25.845 77.4187 26.1349 77.5887 26.4349C78.0687 27.2749 78.4587 28.1349 78.7687 29.0149C78.8787 29.3149 78.8387 29.6248 78.6887 29.8948C78.6487 29.9548 78.6087 30.0155 78.5587 30.0755C78.2987 30.3755 77.9287 30.4956 77.5387 30.4056C76.4987 30.1856 75.4787 29.7452 74.4587 29.0852C73.9387 28.6852 73.5687 28.1953 73.3387 27.6253C72.9887 26.7553 73.3287 25.7855 74.1387 25.3255ZM47.7587 41.9056C46.6587 42.6256 44.9787 41.9949 44.0187 40.5149C43.0587 39.0349 43.1687 37.2454 44.2687 36.5354C45.3687 35.8154 47.0487 36.4351 48.0087 37.9251C48.9787 39.3951 48.8687 41.1856 47.7587 41.9056Z" fill="white"/>
<path d="M141.529 17.9453V57.1953H154.469V41.4551L163.529 41.8848V33.0352L154.329 32.7549L154.469 28.7246L166.189 28.9453V16.6445L141.529 17.9453Z" fill="white"/>
<path d="M182.369 21.7549C173.079 21.7549 165.549 29.2852 165.549 38.5752C165.549 47.8652 173.079 55.3945 182.369 55.3945C191.659 55.3945 199.189 47.8652 199.189 38.5752C199.189 29.2852 191.659 21.7549 182.369 21.7549ZM182.369 44.5049C179.089 44.5049 176.439 41.8452 176.439 38.5752C176.439 35.2952 179.099 32.6445 182.369 32.6445C185.649 32.6445 188.299 35.3052 188.299 38.5752C188.299 41.8552 185.649 44.5049 182.369 44.5049Z" fill="white"/>
<path d="M268.049 75.2246C258.759 75.2246 251.229 82.7549 251.229 92.0449C251.229 101.335 258.759 108.865 268.049 108.865C277.339 108.865 284.869 101.335 284.869 92.0449C284.869 82.7549 277.339 75.2246 268.049 75.2246ZM268.049 97.9844C264.769 97.9844 262.119 95.3247 262.119 92.0547C262.119 88.7747 264.779 86.125 268.049 86.125C271.329 86.125 273.979 88.7847 273.979 92.0547C273.979 95.3247 271.329 97.9844 268.049 97.9844Z" fill="white"/>
<path d="M232.049 30.6649C231.909 20.1649 218.029 17.6547 215.439 17.5047C212.849 17.3547 206.309 17.3652 201.199 19.9452L200.619 56.4745H212.769V45.0448L215.289 45.1151L219.959 56.4745L232.039 54.535L225.429 41.9549C225.439 41.9549 232.199 41.1649 232.049 30.6649ZM212.499 37.495V27.0643C212.499 27.0643 220.549 26.1343 220.549 32.2743C220.549 38.4143 212.499 37.495 212.499 37.495Z" fill="white"/>
<path d="M123.919 70.9746L123.049 85.2744H131.969L130.819 109.465H143.569L144.119 83.8652L152.749 83.7949L151.399 70.875L123.919 70.9746Z" fill="white"/>
<path d="M155.069 72.2246L153.539 109.465H165.519L166.289 93.7949L171.559 93.6953V110.274L185.369 109.465L184.409 71.0752H171.849L171.369 86.7949L167.049 86.8848L167.149 71.6445L155.069 72.2246Z" fill="white"/>
<path d="M188.719 71.0752L187.189 109.465H210.289L211.439 97.1748L199.099 97.3652L199.479 93.2148H207.889L207.989 84.2549L200.149 84.3447L200.059 80.9453L212.499 80.8447V71.0752H188.719Z" fill="white"/>
<path d="M221.239 72.2341V109.234C221.239 109.234 249.619 112.494 249.709 91.8844C249.809 71.2744 234.669 67.8241 221.239 72.2341ZM230.159 94.1843V83.8346C231.209 83.8346 237.159 83.8348 237.349 88.5348C237.539 93.2248 230.159 94.1843 230.159 94.1843Z" fill="white"/>
<path d="M314.279 72.3541L313.989 82.4948C313.989 82.4948 305.939 78.9048 300.829 83.2848C295.719 87.6648 296.369 97.5947 304.419 98.4547C304.419 98.4547 307.579 98.8845 307.939 95.5045L303.189 95.4342L302.399 86.5944L317.569 86.9547L316.849 105.125C316.849 105.125 311.089 112.185 298.299 108.875C286.529 105.835 285.769 93.4442 286.129 87.1842C286.499 80.9342 295.249 65.1341 314.279 72.3541Z" fill="white"/>
</svg>
